<svg xmlns="http://www.w3.org/2000/svg" version="1.0" width="300.000000" height="200.000000" preserveAspectRatio="xMidYMid meet"><rect id="backgroundrect" width="100%" height="100%" x="0" y="0" fill="none" stroke="none"/>
<metadata>
Created by potrace 1.10, written by Peter Selinger 2001-2011
</metadata>

<g class="currentLayer" style=""><title>Layer 1</title><g transform="translate(0,200) scale(0.10000000149011612,-0.10000000149011612) " fill="#b80404" stroke="none" id="svg_1" class="selected" fill-opacity="1">
<path d="M735 1901 c-52 -13 -93 -40 -122 -78 l-28 -36 0 -788 0 -787 31 -38 c49 -61 94 -79 199 -79 80 0 95 3 137 27 25 15 57 45 70 65 23 37 23 43 26 346 l3 307 70 0 69 0 0 160 0 160 -69 0 -70 0 -3 308 c-3 302 -3 308 -26 345 -36 57 -94 86 -183 92 -41 2 -87 1 -104 -4z" id="svg_2" fill="#b80404" fill-opacity="1"/>
<path d="M2089 1894 c-54 -16 -95 -53 -120 -109 -17 -36 -19 -70 -19 -332 l0 -293 -70 0 -70 0 0 -160 0 -160 69 0 70 0 3 -308 3 -309 28 -40 c37 -54 95 -84 172 -91 118 -9 219 37 251 114 21 49 21 1539 0 1588 -39 94 -186 141 -317 100z" id="svg_3" fill="#b80404" fill-opacity="1"/>
<path d="M323 1575 c-17 -7 -36 -22 -42 -34 -7 -12 -11 -90 -11 -200 l0 -181 -27 -6 c-110 -23 -164 -97 -142 -191 11 -49 65 -99 124 -114 l45 -11 0 -185 c0 -181 0 -184 24 -208 13 -13 37 -27 52 -31 39 -10 106 15 121 46 10 19 13 146 13 538 0 565 1 559 -61 581 -41 14 -57 13 -96 -4z" id="svg_4" fill="#b80404" fill-opacity="1"/>
<path d="M2574 1576 c-17 -8 -34 -22 -38 -31 -12 -33 -8 -1085 4 -1100 18 -22 78 -38 115 -31 19 4 43 18 55 33 18 24 20 40 20 207 l0 182 44 12 c57 15 113 64 127 111 24 81 -33 169 -126 192 l-45 11 0 180 c0 109 -4 187 -11 200 -11 21 -66 48 -96 48 -10 -1 -32 -7 -49 -14z" id="svg_5" fill="#b80404" fill-opacity="1"/>
<path d="M1210 1000 l0 -160 290 0 290 0 0 160 0 160 -290 0 -290 0 0 -160z" id="svg_6" fill="#b80404" fill-opacity="1"/>
</g></g></svg>