<?xml version="1.0" standalone="no"?>
<!DOCTYPE svg PUBLIC "-//W3C//DTD SVG 20010904//EN"
 "http://www.w3.org/TR/2001/REC-SVG-20010904/DTD/svg10.dtd">
<svg version="1.0" xmlns="http://www.w3.org/2000/svg"
 width="300.000000pt" height="298.000000pt" viewBox="0 0 300.000000 298.000000"
 preserveAspectRatio="xMidYMid meet">
<metadata>
Created by potrace 1.10, written by Peter Selinger 2001-2011
</metadata>
<g transform="translate(0.000000,298.000000) scale(0.050000,-0.050000)"
fill="#cc0000" stroke="none">
<path d="M2968 5863 c9 -15 -14 -19 -72 -13 -46 4 -90 1 -95 -8 -6 -9 -78 -23
-161 -31 -198 -19 -207 -20 -235 -38 -14 -9 -33 -10 -44 -4 -10 6 -24 2 -31
-9 -8 -13 -26 -13 -54 2 -25 14 -36 14 -28 2 10 -18 -68 -55 -154 -73 -13 -3
-42 -12 -64 -20 -55 -20 -78 -26 -91 -23 -6 1 -33 -12 -60 -29 -27 -17 -74
-30 -105 -29 -35 1 -52 -7 -46 -22 13 -34 -38 -50 -68 -21 -20 18 -22 17 -11
-3 17 -31 -46 -87 -83 -75 -12 5 -34 -4 -47 -20 -13 -16 -34 -23 -46 -16 -13
8 -16 6 -8 -3 20 -23 -60 -76 -88 -58 -14 8 -18 5 -10 -7 17 -27 -84 -109
-112 -92 -12 8 -15 4 -8 -9 15 -24 -54 -70 -74 -50 -7 7 -13 -1 -13 -18 0 -49
-48 -80 -78 -51 -19 20 -21 17 -10 -13 10 -27 8 -34 -9 -24 -14 9 -23 2 -23
-17 0 -17 -14 -31 -31 -31 -17 0 -26 -9 -19 -20 7 -11 -2 -20 -19 -20 -17 0
-31 -10 -31 -21 0 -28 -40 -67 -85 -84 -19 -8 -35 -28 -35 -44 0 -27 -21 -39
-62 -34 -6 0 -11 -12 -11 -28 0 -23 6 -24 31 -4 17 14 9 -3 -18 -37 -28 -35
-57 -59 -65 -54 -8 4 -15 -6 -15 -24 0 -20 -9 -27 -23 -18 -16 10 -20 4 -11
-18 8 -21 -10 -55 -52 -97 -35 -35 -62 -67 -59 -70 14 -19 2 -48 -15 -37 -12
7 -19 6 -16 -4 7 -26 -50 -166 -68 -166 -9 0 -16 -12 -16 -26 0 -15 -16 -44
-35 -65 -19 -22 -36 -48 -36 -59 -3 -54 -35 -128 -52 -118 -10 6 -16 4 -13 -6
9 -27 -50 -226 -67 -226 -9 0 -10 -15 -3 -33 8 -22 5 -29 -10 -20 -16 10 -20
-7 -13 -58 6 -51 2 -67 -14 -57 -14 8 -18 5 -10 -7 7 -11 3 -69 -8 -128 -46
-232 -64 -655 -35 -840 6 -43 2 -84 -11 -98 -17 -19 -17 -21 2 -11 14 8 26 3
27 -12 1 -14 6 -62 11 -106 5 -44 10 -91 12 -105 1 -14 10 -25 20 -25 11 0 15
-12 9 -28 -6 -15 0 -39 13 -52 18 -20 17 -22 -7 -9 -24 13 -25 11 -9 -12 12
-16 42 -92 68 -169 26 -77 55 -150 64 -162 9 -12 19 -46 21 -75 3 -29 12 -53
22 -53 9 0 11 -9 4 -20 -7 -11 -1 -20 14 -20 19 -1 18 -6 -4 -20 -26 -17 -25
-19 5 -20 31 0 44 -22 37 -65 -1 -8 7 -15 18 -15 11 0 20 -19 20 -41 0 -23 9
-36 20 -29 11 7 20 -1 20 -16 0 -16 14 -40 30 -54 17 -14 26 -30 20 -36 -6 -6
9 -32 33 -58 24 -25 36 -46 25 -47 -10 0 5 -13 32 -29 28 -16 38 -29 23 -29
-14 -1 2 -29 37 -64 34 -34 58 -74 52 -89 -6 -16 1 -22 19 -15 16 6 29 1 29
-12 0 -13 8 -18 18 -12 10 6 23 -3 29 -19 7 -17 3 -30 -8 -30 -10 0 -19 -10
-19 -22 0 -12 11 -18 24 -13 14 4 44 -13 67 -38 24 -26 49 -40 56 -33 7 7 13
0 13 -16 0 -16 19 -42 42 -59 24 -16 53 -38 65 -50 13 -11 52 -41 87 -65 44
-31 61 -56 53 -80 -9 -28 -7 -29 10 -5 23 33 113 -27 91 -61 -5 -10 3 -13 19
-6 16 6 52 -12 80 -41 28 -28 64 -51 80 -51 16 0 34 -14 41 -32 7 -18 25 -27
42 -21 16 6 44 -3 61 -21 18 -18 52 -35 76 -37 30 -2 41 -15 37 -41 -4 -27 -1
-31 12 -12 18 26 124 -4 124 -35 0 -7 24 -14 53 -17 29 -2 80 -18 113 -34 33
-17 72 -30 86 -30 14 0 51 -10 82 -23 31 -13 73 -21 93 -18 25 3 32 -4 22 -21
-11 -17 -6 -21 16 -13 17 7 83 3 148 -7 224 -37 629 -51 797 -28 66 9 273 27
336 29 9 1 10 11 2 24 -8 14 -5 18 8 10 12 -8 60 1 108 18 47 18 111 32 141
30 30 -1 55 7 55 18 0 10 29 28 65 38 124 37 205 73 221 98 9 14 38 25 64 25
26 0 52 8 58 17 15 25 276 174 294 168 9 -2 21 13 28 34 13 43 70 72 70 35 0
-13 12 -1 26 26 15 28 41 49 60 47 18 -1 29 5 24 14 -6 9 14 34 45 57 30 23
64 49 75 58 31 25 98 51 118 46 10 -2 9 8 -3 23 -16 18 -16 35 -2 56 17 24 19
22 9 -7 -7 -21 -3 -31 8 -24 11 7 20 30 20 52 0 22 9 35 20 28 11 -7 20 1 20
17 0 16 32 57 71 91 39 34 63 62 55 62 -9 1 7 19 34 42 28 23 37 35 22 26 -19
-9 -15 4 10 38 21 29 44 53 52 53 8 1 9 16 2 34 -9 23 -5 29 11 19 12 -8 23
-5 23 7 0 11 18 39 40 61 22 22 35 40 30 40 -13 0 65 158 96 197 12 15 25 43
28 63 3 19 27 79 54 132 27 53 45 104 39 112 -5 9 0 16 11 16 11 0 15 15 8 33
-9 23 -5 29 10 19 16 -9 19 -3 11 20 -8 20 -1 43 16 56 37 27 61 112 33 112
-14 0 -13 10 1 27 13 15 17 32 10 39 -7 7 -3 25 8 39 12 14 21 48 20 75 0 28
6 100 15 160 20 139 26 680 8 720 -14 33 -42 224 -42 295 0 25 -9 45 -19 45
-11 0 -14 9 -6 21 7 11 2 34 -12 50 -13 16 -19 29 -12 29 6 0 -2 30 -17 67
-16 38 -23 74 -16 80 7 7 2 13 -12 13 -13 0 -22 11 -19 25 6 31 -46 175 -64
175 -7 0 -25 38 -40 85 -15 47 -35 90 -44 97 -9 6 -18 30 -20 53 -2 23 -9 38
-17 34 -8 -5 -19 13 -26 40 -7 27 -35 72 -62 99 -28 28 -50 64 -50 81 0 17 -9
31 -20 31 -12 0 -30 23 -40 50 -10 28 -29 50 -41 50 -12 0 -16 8 -10 18 6 10
-3 23 -20 30 -18 6 -25 22 -17 35 8 13 6 18 -6 11 -24 -15 -92 53 -73 73 8 7
3 13 -10 13 -13 0 -41 29 -63 65 -22 36 -40 58 -40 50 0 -8 -20 5 -45 30 -25
25 -42 53 -39 62 3 9 -6 13 -20 8 -37 -12 -139 87 -126 123 7 17 6 25 -2 17
-7 -8 -51 15 -96 50 -45 35 -68 47 -52 26 29 -37 29 -37 -25 -2 -30 19 -55 44
-55 53 0 10 -9 18 -20 18 -30 0 -202 111 -190 123 5 6 -1 11 -15 11 -14 0 -65
19 -115 41 -49 23 -110 48 -135 55 -25 7 -45 21 -45 31 0 10 -13 13 -30 6 -16
-6 -30 -1 -30 11 0 12 -7 20 -15 18 -34 -8 -144 29 -134 45 6 10 -3 13 -20 7
-17 -7 -95 8 -175 32 -79 24 -207 48 -284 53 -77 4 -147 18 -154 30 -9 14 -41
17 -88 8 -58 -11 -71 -8 -58 13 10 17 3 16 -22 -4 -22 -17 -31 -20 -23 -5 9
14 6 25 -6 25 -11 0 -21 -9 -21 -21 0 -13 -14 -13 -42 2 -29 15 -38 16 -30 2z
m282 -143 c2394 -221 3426 -3140 1698 -4801 -1490 -1430 -3941 -818 -4599
1149 -562 1679 625 3494 2388 3651 255 23 273 23 513 1z"/>
<path d="M3367 4085 c11 -17 1 -25 -32 -25 -26 0 -58 -11 -71 -24 -13 -13 -24
-16 -24 -7 0 9 -19 -7 -42 -36 -23 -30 -52 -47 -65 -40 -12 7 -17 6 -9 -2 20
-22 -30 -67 -92 -82 -34 -9 -52 -5 -52 10 0 13 -9 18 -20 11 -11 -7 -40 2 -64
19 -25 17 -37 31 -28 31 10 0 -17 24 -60 53 -112 76 -187 89 -270 45 -37 -20
-81 -42 -98 -50 -33 -16 -167 -128 -152 -128 5 0 -20 -31 -54 -68 -65 -70 -99
-311 -45 -312 12 0 9 -8 -6 -18 -22 -14 -21 -26 7 -69 19 -29 29 -53 23 -53
-6 0 24 -34 67 -75 110 -105 134 -124 145 -114 5 5 53 -10 107 -35 109 -49
148 -59 148 -39 0 16 121 70 145 66 8 -2 13 8 10 22 -3 14 7 23 21 20 15 -4
22 2 16 12 -14 22 44 74 102 92 67 20 226 -80 190 -120 -8 -9 -4 -10 9 -2 12
7 45 -5 73 -27 28 -22 61 -40 73 -40 13 0 18 -9 12 -19 -34 -54 304 91 382
165 123 114 181 423 96 508 -16 16 -23 39 -16 51 7 12 4 16 -7 9 -11 -7 -31 8
-45 33 -13 26 -50 62 -83 81 -32 19 -58 43 -58 54 0 11 -9 15 -20 8 -11 -7
-20 -3 -20 9 0 11 -7 20 -15 18 -28 -6 -85 27 -75 43 6 9 -6 14 -25 11 -19 -3
-48 4 -64 17 -22 17 -25 16 -14 -3z m-635 -211 c8 -7 14 -142 14 -299 l0 -285
-102 -6 -102 -6 -6 286 c-3 157 0 295 8 307 16 23 166 26 188 3z m733 7 c8 0
15 -136 15 -302 l0 -301 -105 6 -105 6 -4 279 c-5 309 1 327 109 319 41 -3 82
-6 90 -7z m-985 -321 l0 -200 -60 0 -60 0 0 187 c0 202 4 213 73 213 46 0 47
-4 47 -200z m1170 0 l0 -190 -58 0 -57 0 1 185 c1 102 2 190 3 196 0 7 26 9
56 5 l55 -6 0 -190z m-430 30 l0 -90 -210 0 -210 0 0 90 0 90 210 0 210 0 0
-90z"/>
<path d="M2620 2880 c0 -11 -11 -20 -26 -20 -35 0 -134 -158 -136 -219 -9
-248 14 -363 88 -443 34 -37 61 -75 58 -84 -2 -9 13 -6 35 5 25 14 43 14 51 1
7 -11 23 -19 36 -18 17 1 17 4 -1 11 -14 6 -25 19 -25 29 0 23 45 15 65 -12 9
-12 15 -10 15 5 0 14 10 25 21 25 12 0 17 -7 12 -16 -6 -8 37 -14 94 -13 102
2 233 -27 233 -52 0 -23 195 17 245 50 27 17 54 27 62 21 7 -5 9 -4 3 3 -5 8
15 46 45 85 128 167 69 572 -90 614 -25 7 -40 20 -34 30 6 10 -4 18 -23 18
-19 0 -29 -6 -21 -13 7 -7 -5 -26 -28 -42 -43 -30 -168 -16 -148 16 6 10 -3
13 -20 7 -17 -7 -31 -2 -31 10 0 16 -12 15 -39 -2 -31 -19 -59 -20 -131 0
-109 29 -310 32 -310 4z m283 -173 c45 -40 50 -171 8 -206 -24 -20 -23 -36 10
-114 48 -112 48 -127 3 -127 -27 0 -45 27 -65 95 -26 86 -35 96 -94 101 l-65
7 0 -102 c0 -88 -5 -101 -40 -101 -38 0 -40 13 -40 240 l0 240 123 0 c87 0
135 -10 160 -33z m217 -153 c0 -201 14 -234 100 -234 86 0 100 33 100 234 0
173 3 186 40 186 47 0 60 -314 17 -409 -42 -92 -217 -108 -290 -28 -60 66 -67
437 -9 437 40 0 42 -10 42 -186z"/>
<path d="M2700 2600 c0 -80 0 -80 80 -80 88 0 130 69 80 130 -58 70 -160 38
-160 -50z"/>
<path d="M2856 1949 c-4 -3 -68 -10 -143 -14 -75 -5 -143 -17 -150 -27 -7 -10
-35 -18 -63 -18 -27 0 -51 -9 -51 -20 -1 -11 -14 -44 -28 -74 -58 -119 52
-241 210 -233 44 3 93 -3 108 -12 17 -11 22 -10 14 4 -7 11 9 26 36 33 46 11
69 8 146 -21 44 -17 125 -22 125 -8 0 6 27 12 59 13 33 1 56 -3 52 -10 -10
-17 95 -9 219 15 153 30 282 211 179 251 -17 6 -27 19 -21 28 5 9 -17 32 -49
51 -58 35 -311 42 -330 11 -10 -15 -79 -9 -213 18 -52 10 -97 16 -100 13z
m-296 -189 c0 -78 55 -82 64 -5 6 54 96 97 96 46 0 -11 -11 -21 -25 -21 -17
-1 -15 -7 5 -20 27 -18 27 -22 0 -40 -20 -13 -22 -19 -5 -20 79 -1 8 -36 -75
-37 l-100 -1 0 79 c0 44 9 79 20 79 11 0 20 -27 20 -60z m300 40 c0 -11 -9
-20 -20 -20 -11 0 -20 -27 -20 -60 0 -33 -9 -60 -20 -60 -11 0 -20 27 -20 60
0 33 -9 60 -20 60 -11 0 -20 9 -20 20 0 11 27 20 60 20 33 0 60 -9 60 -20z
m160 0 c0 -11 -16 -21 -35 -21 -27 -1 -24 -6 10 -20 51 -20 60 -75 15 -92 -16
-6 -46 -4 -65 4 -33 14 -33 16 1 24 35 8 35 10 2 34 -44 32 -24 91 31 91 23 0
41 -9 41 -20z m120 -40 c0 -40 10 -60 30 -60 17 0 30 -10 30 -21 0 -12 -20
-19 -45 -15 -48 6 -82 156 -36 156 11 0 21 -27 21 -60z m120 -20 c0 -32 -9
-63 -20 -70 -12 -7 -20 20 -20 70 0 50 8 77 20 70 11 -7 20 -38 20 -70z m250
60 c7 -11 -2 -20 -19 -20 -21 0 -31 -19 -31 -61 0 -36 -8 -56 -20 -49 -11 7
-20 34 -20 61 0 40 -10 49 -55 49 -44 -1 -49 -5 -25 -22 23 -16 24 -24 5 -31
-14 -6 -25 -23 -25 -39 0 -15 -9 -28 -20 -28 -22 0 -28 126 -7 147 21 21 203
15 217 -7z"/>
</g>
</svg>
