<svg xmlns="http://www.w3.org/2000/svg" version="1.0" width="225.000000" height="225.000000" preserveAspectRatio="xMidYMid meet"><rect id="backgroundrect" width="100%" height="100%" x="0" y="0" fill="none" stroke="none"/>
<metadata>
Created by potrace 1.10, written by Peter Selinger 2001-2011
</metadata>

<g class="currentLayer" style=""><title>Layer 1</title><g transform="translate(0,225) scale(0.10000000149011612,-0.10000000149011612) " fill="#b80404" stroke="none" id="svg_1" class="selected" fill-opacity="1">
<path d="M869 2236 c-133 -38 -221 -121 -269 -253 -58 -162 -126 -269 -229 -365 -34 -31 -61 -65 -61 -75 0 -27 28 -51 89 -74 87 -33 131 -23 131 31 0 30 -17 50 -42 50 -25 0 -23 12 7 40 14 13 42 48 62 78 36 51 38 53 47 30 75 -194 183 -287 347 -296 98 -6 153 9 229 60 98 65 162 180 180 326 26 198 -50 346 -216 424 -77 36 -198 47 -275 24z m76 -184 c-33 -72 -76 -118 -140 -148 -55 -26 -115 -32 -115 -11 0 7 7 36 15 63 27 93 112 164 216 182 56 10 61 -6 24 -86z m185 51 c76 -50 120 -117 123 -186 l2 -42 -50 -3 c-61 -4 -119 12 -162 44 l-33 25 19 37 c10 20 24 55 30 77 7 22 14 46 16 53 6 17 26 15 55 -5z m-166 -262 c9 -10 45 -31 79 -47 48 -21 78 -28 134 -28 84 -1 86 -3 48 -84 -36 -77 -69 -115 -127 -148 -69 -37 -170 -41 -233 -7 -76 41 -141 126 -159 209 l-7 30 65 13 c38 8 87 27 118 46 64 40 61 39 82 16z" id="svg_2" fill="#b80404" fill-opacity="1"/>
<path d="M830 1265 c-136 -38 -239 -115 -290 -218 -25 -52 -42 -126 -100 -436 -64 -345 -69 -376 -55 -398 l15 -23 270 0 c290 0 300 2 300 54 0 44 -11 46 -252 46 -125 0 -228 3 -228 7 0 3 27 153 60 332 40 214 68 341 83 369 84 169 348 229 555 125 62 -31 76 -34 97 -25 18 9 25 19 25 41 0 38 -46 74 -138 109 -86 32 -257 40 -342 17z" id="svg_3" fill="#b80404" fill-opacity="1"/>
<path d="M1705 1256 c-161 -51 -277 -189 -292 -348 -5 -61 -7 -66 -40 -84 -130 -70 -277 -360 -258 -508 16 -122 97 -230 210 -283 51 -24 72 -28 145 -27 72 0 94 5 144 29 159 76 236 243 192 415 -21 80 -73 190 -120 252 -20 26 -36 49 -36 52 0 2 25 16 55 30 145 66 246 237 233 393 -7 78 -27 93 -122 92 -39 0 -89 -6 -111 -13z m125 -124 c0 -140 -142 -282 -282 -282 -44 0 -44 2 -23 84 15 57 54 125 91 158 29 25 103 61 143 69 69 13 71 12 71 -29z m-300 -415 c71 -58 160 -215 178 -315 27 -150 -74 -281 -224 -290 -87 -6 -141 16 -197 78 -84 93 -88 191 -13 343 68 140 150 225 205 212 13 -4 36 -16 51 -28z" id="svg_4" fill="#b80404" fill-opacity="1"/>
</g></g></svg>