<svg xmlns="http://www.w3.org/2000/svg" version="1.0" width="1147.000000" height="1021.000000" preserveAspectRatio="xMidYMid meet"><rect id="backgroundrect" width="100%" height="100%" x="0" y="0" fill="none" stroke="none"/>
<metadata>
Created by potrace 1.16, written by Peter Selinger 2001-2019
</metadata>

<g class="currentLayer" style=""><title>Layer 1</title><g transform="translate(0,1021) scale(0.10000000149011612,-0.10000000149011612) " fill="#b80404" stroke="none" id="svg_1" class="selected" fill-opacity="1">
<path d="M5284 10200 c-215 -39 -428 -154 -581 -313 -171 -179 -267 -388 -293 -639 -68 -669 518 -1241 1187 -1159 440 54 796 362 910 787 24 89 27 116 27 274 0 191 -9 241 -73 405 -92 239 -323 473 -566 574 -142 59 -214 73 -395 77 -91 1 -188 -1 -216 -6z" id="svg_2" fill="#b80404" fill-opacity="1"/>
<path d="M4440 7799 c-120 -14 -228 -46 -335 -99 -161 -79 13 103 -1690 -1764 -445 -488 -811 -892 -813 -897 -2 -5 250 -9 640 -9 l643 0 555 607 555 606 3 -576 c1 -318 4 -577 6 -577 11 0 1152 423 1159 430 5 4 96 218 204 476 107 258 196 470 198 472 6 7 290 -105 288 -114 -3 -19 -455 -1089 -462 -1097 -5 -5 -348 -136 -762 -291 -415 -156 -769 -291 -787 -300 -83 -43 -158 -135 -192 -237 -18 -52 -21 -81 -18 -155 3 -79 8 -100 38 -160 43 -88 112 -156 198 -197 63 -30 74 -32 177 -32 l110 0 850 314 c468 172 872 324 899 337 70 35 118 76 159 136 36 53 766 1808 813 1954 34 104 47 260 34 389 -37 368 -235 638 -547 746 -133 46 -197 49 -1048 48 -440 -1 -834 -5 -875 -10z" id="svg_3" fill="#b80404" fill-opacity="1"/>
<path d="M6882 5775 c-6 -13 -111 -259 -232 -545 -268 -632 -306 -713 -365 -789 -55 -70 -137 -137 -220 -178 -33 -17 -242 -98 -465 -181 -223 -83 -418 -155 -434 -162 l-30 -11 159 -159 160 -160 722 0 723 0 0 1105 c0 608 -2 1105 -3 1105 -2 0 -9 -11 -15 -25z" id="svg_4" fill="#b80404" fill-opacity="1"/>
<path d="M1448 4684 c-175 -42 -326 -183 -379 -353 -26 -84 -28 -216 -4 -298 49 -171 181 -304 360 -364 32 -11 235 -14 984 -19 l944 -5 347 -525 c190 -289 342 -526 336 -527 -6 -2 -153 -14 -326 -28 -298 -23 -1718 -137 -2813 -225 -535 -43 -546 -45 -647 -110 -66 -43 -152 -137 -184 -202 -147 -304 0 -646 324 -755 53 -17 144 -18 2142 -21 1449 -2 2088 1 2088 8 0 6 -13 36 -29 68 -55 110 -75 195 -75 322 -1 139 16 208 81 340 39 80 60 109 137 185 98 98 185 151 321 196 l70 24 910 5 910 6 624 132 c344 73 629 131 635 129 10 -4 82 -325 74 -332 -1 -1 -298 -65 -658 -141 l-655 -139 -900 -5 -900 -5 -60 -24 c-83 -34 -183 -133 -215 -216 -32 -80 -34 -215 -6 -292 39 -105 125 -191 233 -235 l58 -23 1715 0 1715 0 82 22 c282 75 481 233 603 478 74 148 93 229 93 405 1 121 -3 159 -22 230 -85 317 -315 554 -631 652 l-75 23 -1577 5 -1577 5 -360 352 -361 353 -48 -19 c-258 -102 -533 -193 -608 -203 -292 -39 -628 132 -761 388 -66 126 -87 216 -87 364 0 144 14 204 74 318 l39 72 -942 -1 c-767 -1 -953 -3 -999 -15z" id="svg_5" fill="#b80404" fill-opacity="1"/>
<path d="M10385 3780 c-410 -50 -746 -356 -830 -755 -19 -94 -22 -281 -6 -372 72 -390 381 -699 774 -774 81 -16 276 -16 352 0 410 84 713 397 776 803 15 96 5 293 -19 383 -97 358 -375 625 -732 700 -89 18 -230 25 -315 15z" id="svg_6" fill="#b80404" fill-opacity="1"/>
<path d="M9955 1531 c-88 -22 -171 -73 -375 -235 -259 -206 -426 -301 -617 -354 l-98 -27 -4365 -5 c-4029 -5 -4367 -6 -4395 -21 -81 -45 -94 -88 -94 -314 0 -99 4 -211 9 -250 22 -150 112 -266 237 -305 65 -20 84 -20 5468 -20 5370 0 5403 0 5467 20 106 32 183 112 224 230 18 51 19 89 19 550 l0 495 -28 57 c-39 79 -108 139 -191 166 -65 22 -77 22 -649 21 -320 -1 -595 -4 -612 -8z" id="svg_7" fill="#b80404" fill-opacity="1"/>
</g></g></svg>