<svg xmlns="http://www.w3.org/2000/svg" width="225" height="225" style=""><rect id="backgroundrect" width="100%" height="100%" x="0" y="0" fill="none" stroke="none"/>












































































































































































































































































































































































































































































































































































































































































































































































































































































































































<g class="currentLayer" style=""><title>Layer 1</title><path style="" d="M0 0L0 94L8 92C4.97733 68.0827 10.7212 42.5632 25.1559 23C32.0476 13.6597 42.7472 4.47234 55 4.12962C66.2361 3.81534 76.7809 11.9286 83.6998 20C99.3632 38.2724 107.397 68.3139 103 92C114.26 92.8518 111.543 109.652 103.871 114.288C98.7825 117.362 97.0548 110.668 98.1057 107.025C98.5975 105.32 99.3633 103.654 100 102L12 102C13.3208 110.812 18.7089 119.688 25.0903 125.826C28.1133 128.734 36.5154 132.204 36.5154 137.015C36.5154 143.818 24.2281 153.266 22 161L30 161.004C34.2524 161.063 44.5071 165.365 36.848 169.972C32.2827 172.719 12.7309 172.976 10.9159 166.941C7.85103 156.75 20.3311 145.244 24 137C12.2032 128.69 3.11856 114.345 1 100L0 100L0 225L225 225L225 87L224 87C216.339 113.034 183.654 125.77 159 120.547C150.507 118.748 144.517 113.817 137.004 110.051C133.198 108.144 117.413 123.87 117.998 112.981C118.302 107.308 125.679 104.622 126.396 99C127.253 92.2781 124.493 84.9894 125.17 78C127.505 53.8732 141.247 31.376 161 17.439C173.451 8.65385 188.671 3.01874 204 3C215.095 2.98643 222.981 4.54211 224 17L225 17L225 0L0 0z" id="svg_1" class="" stroke="#ffffff" stroke-opacity="1" fill="#ffffff" fill-opacity="1"/><path style="fill:#a5a5a5; stroke:none;" d="M195 3L195 4L198 4L195 3z" id="svg_2"/><path style="fill:#727272; stroke:none;" d="M198.667 3.33333L199.333 3.66667L198.667 3.33333z" id="svg_3"/><path style="fill:#515151; stroke:none;" d="M200 3L200 4L203 4L200 3z" id="svg_4"/><path style="stroke: none;" d="M133 107C152.652 119.945 174.318 126.761 197 115.741C214.404 107.285 236.83 84.2733 211 72C219.306 56.3949 226.508 40.1592 224.285 22C223.72 17.3878 224.095 11.1806 221.143 7.27855C217.213 2.08459 205.686 3.29065 200 3.83179C181.134 5.62723 163.866 12.8057 150.09 26.1698C137.438 38.4421 127.938 56.3231 126.171 74C125.363 82.0726 128.043 91.2357 126.731 99C125.849 104.227 114.925 109.618 119.032 115.551C123.27 121.671 131.419 110.39 133 107z" id="svg_5" class="" fill="#b80404" fill-opacity="1"/><path style="fill:#515151; stroke:none;" d="M207 3L207 4L210 4L207 3z" id="svg_6"/><path style="fill:#727272; stroke:none;" d="M210 3L211 4L210 3z" id="svg_7"/><path style="fill:#a5a5a5; stroke:none;" d="M211 3L211 4L214 4L211 3M51 4L51 5L54 5L51 4z" id="svg_8"/><path style="fill:#727272; stroke:none;" d="M54 4L54 5L57 5L54 4z" id="svg_9"/><path style="fill:#a5a5a5; stroke:none;" d="M57 4L57 5L60 5L57 4M190 4L191 5L190 4z" id="svg_10"/><path style="fill:#727272; stroke:none;" d="M191 4L192 5L191 4z" id="svg_11"/><path style="fill:#515151; stroke:none;" d="M192 4L193 5L192 4M217 4L218 5L217 4z" id="svg_12"/><path style="fill:#a5a5a5; stroke:none;" d="M218 4L219 5L218 4M47 5L48 6L47 5z" id="svg_13"/><path style="fill:#515151; stroke:none;" d="M48 5L49 6L48 5z" id="svg_14"/><path style="stroke: none;" d="M8 92C-1.14079 93.0273 0.449855 100.115 2.86497 107C6.82373 118.286 13.6623 131.713 25 137C22.0112 140.457 19.3263 144.046 17.0177 148C15.3374 150.878 14.0681 153.846 13.0039 157C11.8764 160.341 9.82925 165.354 12.0285 168.682C14.7398 172.785 33.7569 172.489 37.5625 169.821C45.3497 164.361 32.2784 162.001 29 162L21 162C23.3759 156.293 26.1944 150.719 30.2971 146.039C32.487 143.542 36.7331 140.808 36.4537 137.025C36.1113 132.392 28.0442 128.036 25.0039 124.996C18.3262 118.318 13.1998 110.261 11 101L100 101C99.4547 103.357 98.602 105.644 98.0833 108.001C97.1997 112.016 99.945 116.859 104.502 113.816C111.821 108.929 113.266 93.1473 103 92C103 63.2053 97.8219 9.77354 60 5.18442C16.0368 -0.149872 8 61.4952 8 92z" id="svg_15" class="" fill="#b80404" fill-opacity="1"/><path style="fill:#515151; stroke:none;" d="M62 5L63 6L62 5z" id="svg_16"/><path style="fill:#a5a5a5; stroke:none;" d="M63 5L64 6L63 5M186 5L187 6L186 5z" id="svg_17"/><path style="fill:#515151; stroke:none;" d="M187 5L188 6L187 5z" id="svg_18"/><path style="fill:#727272; stroke:none;" d="M220 5L221 6L220 5z" id="svg_19"/><path style="fill:#a5a5a5; stroke:none;" d="M44 6L45 7L44 6z" id="svg_20"/><path style="fill:#515151; stroke:none;" d="M45 6L46 7L45 6M65 6L66 7L65 6z" id="svg_21"/><path style="fill:#a5a5a5; stroke:none;" d="M66 6L67 7L66 6M182 6L183 7L182 6z" id="svg_22"/><path style="fill:#727272; stroke:none;" d="M183 6L184 7L183 6z" id="svg_23"/><path style="fill:#a5a5a5; stroke:none;" d="M221 6L222 7L221 6M42 7L43 8L42 7M68 7L69 8L68 7M179 7L180 8L179 7z" id="svg_24"/><path style="fill:#727272; stroke:none;" d="M180 7L181 8L180 7z" id="svg_25"/><path style="fill:#a5a5a5; stroke:none;" d="M40 8L41 9L40 8M70 8L71 9L70 8z" id="svg_26"/><path style="fill:#727272; stroke:none;" d="M177 8L178 9L177 8z" id="svg_27"/><path style="fill:#a5a5a5; stroke:none;" d="M222 8L223 9L222 8z" id="svg_28"/><path style="fill:#515151; stroke:none;" d="M39 9L40 10L39 9z" id="svg_29"/><path style="fill:#a5a5a5; stroke:none;" d="M174 9L175 10L174 9z" id="svg_30"/><path style="fill:#515151; stroke:none;" d="M175 9L176 10L175 9z" id="svg_31"/><path style="fill:#727272; stroke:none;" d="M222 9L223 10L222 9z" id="svg_32"/><path style="fill:#a5a5a5; stroke:none;" d="M37 10L38 11L37 10z" id="svg_33"/><path style="fill:#727272; stroke:none;" d="M73 10L74 11L73 10z" id="svg_34"/><path style="fill:#a5a5a5; stroke:none;" d="M172 10L173 11L172 10z" id="svg_35"/><path style="fill:#515151; stroke:none;" d="M173 10L174 11L173 10M36 11L37 12L36 11M74 11L75 12L74 11z" id="svg_36"/><path style="fill:#a5a5a5; stroke:none;" d="M170 11L171 12L170 11M34 12L35 13L34 12M76 12L77 13L76 12M168 12L169 13L168 12M223 12L224 13L223 12M33 13L34 14L33 13M77 13L78 14L77 13z" id="svg_37"/><path style="fill:#515151; stroke:none;" d="M167 13L168 14L167 13M194 13L195 14L194 13z" id="svg_38"/><path style="fill:#727272; stroke:none;" d="M195 13L196 14L195 13z" id="svg_39"/><path style="fill:#a5a5a5; stroke:none;" d="M196.667 13.3333L197.333 13.6667L196.667 13.3333z" id="svg_40"/><path style="fill:#fefefe; stroke:none;" d="M136 90C140.189 87.0246 146.815 81.4959 147.383 76C147.849 71.4882 144.013 66.4669 146.117 62.0625C150.131 53.6625 155.342 63.6355 156 68C160.773 64.6353 168.612 58.1684 169.512 52C170.17 47.493 166.323 42.391 168.201 38.0594C171.637 30.1371 177.479 38.3283 178 43C182.637 40.8363 184.888 36.2521 189.17 33.8511C192.158 32.1757 196.447 34.2782 195.94 38.0154C195.288 42.818 189.057 46.5897 187 51C191.194 51.58 200.56 55.3677 193.836 60.3819C189.594 63.5454 183.768 59.7085 179.09 60.4877C173.546 61.411 167.06 70.6557 164 75C168.177 76.0439 179.786 81.7167 169.952 85.3819C165.878 86.9003 159.108 84.9808 155 84L143 98C174.078 97.9142 202.125 77.7444 211.656 48C213.858 41.1281 219.524 19.7163 212.4 14.179C205.781 9.03294 187.787 14.9615 181 17.615C155.959 27.4045 127.374 60.8161 136 90z" id="svg_41"/><path style="fill:#a5a5a5; stroke:none;" d="M212 13L213 14L212 13z" id="svg_42"/><path style="fill:#727272; stroke:none;" d="M213 13L214 14L213 13M223 13L224 14L223 13M32 14L33 15L32 14z" id="svg_43"/><path style="fill:#515151; stroke:none;" d="M50 14L51 15L50 14z" id="svg_44"/><path style="fill:#727272; stroke:none;" d="M51 14L52 15L51 14z" id="svg_45"/><path style="fill:#a5a5a5; stroke:none;" d="M52.6667 14.3333L53.3333 14.6667L52.6667 14.3333z" id="svg_46"/><path style="fill:#fefefe; stroke:none;" d="M18 92L93 92C94.6912 70.5706 91.932 48.1406 79.2292 30C73.5632 21.9086 64.7089 13.5564 54 14.5293C21.0338 17.5245 16.9623 67.8303 18 92z" id="svg_47" class=""/><path style="fill:#a5a5a5; stroke:none;" d="M57 14L57 15L60 15L57 14z" id="svg_48"/><path style="fill:#515151; stroke:none;" d="M60 14L61 15L60 14z" id="svg_49"/><path style="fill:#727272; stroke:none;" d="M78 14L79 15L78 14M165 14L166 15L165 14z" id="svg_50"/><path style="fill:#515151; stroke:none;" d="M189 14L190 15L189 14z" id="svg_51"/><path style="fill:#a5a5a5; stroke:none;" d="M190.667 14.3333L191.333 14.6667L190.667 14.3333z" id="svg_52"/><path style="fill:#515151; stroke:none;" d="M223 14L224 15L223 14z" id="svg_53"/><path style="fill:#727272; stroke:none;" d="M31 15L32 16L31 15z" id="svg_54"/><path style="fill:#a5a5a5; stroke:none;" d="M48 15L49 16L48 15M62 15L63 16L62 15z" id="svg_55"/><path style="fill:#727272; stroke:none;" d="M79 15L80 16L79 15z" id="svg_56"/><path style="fill:#a5a5a5; stroke:none;" d="M163 15L164 16L163 15z" id="svg_57"/><path style="fill:#727272; stroke:none;" d="M186 15L187 16L186 15z" id="svg_58"/><path style="fill:#a5a5a5; stroke:none;" d="M187 15L188 16L187 15z" id="svg_59"/><path style="fill:#727272; stroke:none;" d="M30 16L31 17L30 16z" id="svg_60"/><path style="fill:#a5a5a5; stroke:none;" d="M46 16L47 17L46 16M64 16L65 17L64 16z" id="svg_61"/><path style="fill:#515151; stroke:none;" d="M80 16L81 17L80 16M162 16L163 17L162 16z" id="svg_62"/><path style="fill:#727272; stroke:none;" d="M183 16L184 17L183 16z" id="svg_63"/><path style="fill:#515151; stroke:none;" d="M214 16L215 17L214 16z" id="svg_64"/><path style="fill:#727272; stroke:none;" d="M29 17L30 18L29 17M44 17L45 18L44 17z" id="svg_65"/><path style="fill:#a5a5a5; stroke:none;" d="M66 17L67 18L66 17z" id="svg_66"/><path style="fill:#727272; stroke:none;" d="M81 17L82 18L81 17z" id="svg_67"/><path style="fill:#a5a5a5; stroke:none;" d="M160 17L161 18L160 17z" id="svg_68"/><path style="fill:#515151; stroke:none;" d="M180 17L181 18L180 17z" id="svg_69"/><path style="fill:#a5a5a5; stroke:none;" d="M181 17L182 18L181 17z" id="svg_70"/><path style="fill:#727272; stroke:none;" d="M214 17L215 18L214 17z" id="svg_71"/><path style="fill:#a5a5a5; stroke:none;" d="M224 17L224 20L225 20L224 17M28 18L29 19L28 18z" id="svg_72"/><path style="fill:#515151; stroke:none;" d="M42 18L43 19L42 18M68 18L69 19L68 18z" id="svg_73"/><path style="fill:#727272; stroke:none;" d="M82 18L83 19L82 18M159 18L160 19L159 18M178 18L179 19L178 18z" id="svg_74"/><path style="fill:#a5a5a5; stroke:none;" d="M214.333 18.6667L214.667 19.3333L214.333 18.6667M27 19L28 20L27 19z" id="svg_75"/><path style="fill:#727272; stroke:none;" d="M41 19L42 20L41 19z" id="svg_76"/><path style="fill:#a5a5a5; stroke:none;" d="M69 19L70 20L69 19M83 19L84 20L83 19M176 19L177 20L176 19M40 20L41 21L40 20M70 20L71 21L70 20M84 20L85 21L84 20M156 20L157 21L156 20M174 20L175 21L174 20z" id="svg_77"/><path style="fill:#727272; stroke:none;" d="M224.333 20.6667L224.667 21.3333L224.333 20.6667z" id="svg_78"/><path style="fill:#a5a5a5; stroke:none;" d="M39 21L40 22L39 21z" id="svg_79"/><path style="fill:#727272; stroke:none;" d="M155 21L156 22L155 21M172 21L173 22L172 21z" id="svg_80"/><path style="fill:#515151; stroke:none;" d="M25 22L26 23L25 22M85 22L86 23L85 22M154 22L155 23L154 22M170 22L171 23L170 22M224.333 22.6667L224.667 23.3333L224.333 22.6667z" id="svg_81"/><path style="fill:#a5a5a5; stroke:none;" d="M24 23L25 24L24 23z" id="svg_82"/><path style="fill:#727272; stroke:none;" d="M86 23L87 24L86 23z" id="svg_83"/><path style="fill:#515151; stroke:none;" d="M153 23L154 24L153 23z" id="svg_84"/><path style="fill:#a5a5a5; stroke:none;" d="M169 23L170 24L169 23M87 24L88 25L87 24z" id="svg_85"/><path style="fill:#727272; stroke:none;" d="M167 24L168 25L167 24z" id="svg_86"/><path style="fill:#515151; stroke:none;" d="M215 24L215 31L216 31L215 24z" id="svg_87"/><path style="fill:#a5a5a5; stroke:none;" d="M35 25L36 26L35 25M75 25L76 26L75 25M166 25L167 26L166 25z" id="svg_88"/><path style="fill:#727272; stroke:none;" d="M22 26L23 27L22 26z" id="svg_89"/><path style="fill:#a5a5a5; stroke:none;" d="M34 26L35 27L34 26M76 26L77 27L76 26z" id="svg_90"/><path style="fill:#727272; stroke:none;" d="M88 26L89 27L88 26z" id="svg_91"/><path style="fill:#515151; stroke:none;" d="M164 26L165 27L164 26z" id="svg_92"/><path style="fill:#727272; stroke:none;" d="M33 27L34 28L33 27M77 27L78 28L77 27z" id="svg_93"/><path style="fill:#a5a5a5; stroke:none;" d="M89 27L90 28L89 27M163 27L164 28L163 27z" id="svg_94"/><path style="fill:#515151; stroke:none;" d="M21 28L22 29L21 28M32 28L33 29L32 28M78 28L79 29L78 28z" id="svg_95"/><path style="fill:#a5a5a5; stroke:none;" d="M162 28L163 29L162 28M20 29L21 30L20 29M90 29L91 30L90 29M31 30L32 31L31 30z" id="svg_96"/><path style="fill:#727272; stroke:none;" d="M51 30L52 31L51 30z" id="svg_97"/><path style="stroke: none;" d="M51.9846 30.8804C41.2789 32.2794 34.2976 48.9748 32.4498 58C31.7412 61.4611 29.3953 71.2701 35.9853 70.534C40.7953 69.9966 40.7613 62.5079 41.7461 59C44.5176 49.1279 53.0221 45.0617 56.7122 36.8194C58.1708 33.5616 55.3484 30.4408 51.9846 30.8804z" id="svg_98" class="" fill="#b80404" fill-opacity="1"/><path style="fill:#515151; stroke:none;" d="M54 30L55 31L54 30z" id="svg_99"/><path style="fill:#a5a5a5; stroke:none;" d="M55 30L56 31L55 30M79 30L80 31L79 30z" id="svg_100"/><path style="fill:#515151; stroke:none;" d="M146 30L147 31L146 30M159 30L160 31L159 30z" id="svg_101"/><path style="fill:#727272; stroke:none;" d="M19 31L20 32L19 31z" id="svg_102"/><path style="fill:#515151; stroke:none;" d="M30 31L31 32L30 31z" id="svg_103"/><path style="fill:#727272; stroke:none;" d="M49 31L50 32L49 31M56 31L57 32L56 31z" id="svg_104"/><path style="fill:#515151; stroke:none;" d="M80 31L81 32L80 31z" id="svg_105"/><path style="fill:#727272; stroke:none;" d="M91 31L92 32L91 31z" id="svg_106"/><path style="fill:#515151; stroke:none;" d="M145 31L146 32L145 31M158 31L159 32L158 31M224.333 31.6667L224.667 32.3333L224.333 31.6667z" id="svg_107"/><path style="fill:#a5a5a5; stroke:none;" d="M47 32L48 33L47 32M57 32L58 33L57 32z" id="svg_108"/><path style="fill:#727272; stroke:none;" d="M144 32L145 33L144 32z" id="svg_109"/><path style="fill:#515151; stroke:none;" d="M157 32L158 33L157 32z" id="svg_110"/><path style="fill:#a5a5a5; stroke:none;" d="M190 32L191 33L190 32z" id="svg_111"/><path style="fill:#727272; stroke:none;" d="M191 32L192 33L191 32z" id="svg_112"/><path style="fill:#a5a5a5; stroke:none;" d="M192 32L193 33L192 32z" id="svg_113"/><path style="fill:#727272; stroke:none;" d="M18 33L19 34L18 33z" id="svg_114"/><path style="fill:#a5a5a5; stroke:none;" d="M29 33L30 34L29 33z" id="svg_115"/><path style="fill:#727272; stroke:none;" d="M46 33L47 34L46 33z" id="svg_116"/><path style="fill:#515151; stroke:none;" d="M57 33L58 34L57 33z" id="svg_117"/><path style="fill:#a5a5a5; stroke:none;" d="M81 33L82 34L81 33z" id="svg_118"/><path style="fill:#515151; stroke:none;" d="M92 33L93 34L92 33z" id="svg_119"/><path style="fill:#a5a5a5; stroke:none;" d="M143 33L144 34L143 33z" id="svg_120"/><path style="fill:#727272; stroke:none;" d="M156 33L157 34L156 33z" id="svg_121"/><path style="fill:#a5a5a5; stroke:none;" d="M188 33L189 34L188 33z" id="svg_122"/><path style="fill:#515151; stroke:none;" d="M194 33L195 34L194 33z" id="svg_123"/><path style="fill:#727272; stroke:none;" d="M224.333 33.6667L224.667 34.3333L224.333 33.6667z" id="svg_124"/><path style="fill:#515151; stroke:none;" d="M45 34L46 35L45 34M155 34L156 35L155 34z" id="svg_125"/><path style="fill:#727272; stroke:none;" d="M170 34L171 35L170 34z" id="svg_126"/><path style="fill:#a5a5a5; stroke:none;" d="M174 34L175 35L174 34M187 34L188 35L187 34z" id="svg_127"/><path style="fill:#515151; stroke:none;" d="M195 34L196 35L195 34z" id="svg_128"/><path style="fill:#727272; stroke:none;" d="M17 35L18 36L17 35z" id="svg_129"/><path style="fill:#a5a5a5; stroke:none;" d="M28 35L29 36L28 35M82 35L83 36L82 35z" id="svg_130"/><path style="fill:#515151; stroke:none;" d="M93 35L94 36L93 35M154 35L155 36L154 35M175 35L176 36L175 35z" id="svg_131"/><path style="fill:#a5a5a5; stroke:none;" d="M196 35L197 36L196 35M214.333 35.6667L214.667 36.3333L214.333 35.6667M224 35L224 38L225 38L224 35z" id="svg_132"/><path style="fill:#515151; stroke:none;" d="M27 36L28 37L27 36M57 36L58 37L57 36M83 36L84 37L83 36M141 36L142 37L141 36M153 36L154 37L153 36z" id="svg_133"/><path style="fill:#727272; stroke:none;" d="M176 36L177 37L176 36M196.333 36.6667L196.667 37.3333L196.333 36.6667M16 37L17 38L16 37z" id="svg_134"/><path style="fill:#515151; stroke:none;" d="M42 37L43 38L42 37z" id="svg_135"/><path style="fill:#a5a5a5; stroke:none;" d="M57 37L58 38L57 37z" id="svg_136"/><path style="fill:#727272; stroke:none;" d="M94 37L95 38L94 37z" id="svg_137"/><path style="fill:#a5a5a5; stroke:none;" d="M140 37L141 38L140 37M167 37L167 41L168 41L167 37z" id="svg_138"/><path style="fill:#727272; stroke:none;" d="M214 37L215 38L214 37z" id="svg_139"/><path style="fill:#515151; stroke:none;" d="M26 38L27 39L26 38z" id="svg_140"/><path style="fill:#727272; stroke:none;" d="M41 38L42 39L41 38z" id="svg_141"/><path style="fill:#a5a5a5; stroke:none;" d="M56 38L57 39L56 38z" id="svg_142"/><path style="fill:#515151; stroke:none;" d="M84 38L85 39L84 38z" id="svg_143"/><path style="fill:#a5a5a5; stroke:none;" d="M177.333 38.6667L177.667 39.3333L177.333 38.6667M196 38L197 39L196 38z" id="svg_144"/><path style="fill:#515151; stroke:none;" d="M214 38L215 39L214 38z" id="svg_145"/><path style="fill:#fefefe; stroke:none;" d="M224 38L212 72L225 82C225 69.5195 228.81 49.4634 224 38z" id="svg_146"/><path style="fill:#a5a5a5; stroke:none;" d="M15 39L16 40L15 39M40 39L41 40L40 39z" id="svg_147"/><path style="fill:#515151; stroke:none;" d="M54 39L55 40L54 39z" id="svg_148"/><path style="fill:#a5a5a5; stroke:none;" d="M95 39L96 40L95 39M151 39L152 40L151 39z" id="svg_149"/><path style="fill:#515151; stroke:none;" d="M183 39L184 40L183 39M25 40L26 41L25 40z" id="svg_150"/><path style="fill:#a5a5a5; stroke:none;" d="M53 40L54 41L53 40z" id="svg_151"/><path style="fill:#515151; stroke:none;" d="M85 40L86 41L85 40z" id="svg_152"/><path style="fill:#727272; stroke:none;" d="M138 40L139 41L138 40z" id="svg_153"/><path style="fill:#a5a5a5; stroke:none;" d="M150 40L151 41L150 40z" id="svg_154"/><path style="fill:#515151; stroke:none;" d="M177 40L178 41L177 40M182 40L183 41L182 40z" id="svg_155"/><path style="fill:#a5a5a5; stroke:none;" d="M195 40L196 41L195 40z" id="svg_156"/><path style="fill:#515151; stroke:none;" d="M223 40L224 41L223 40z" id="svg_157"/><path style="fill:#a5a5a5; stroke:none;" d="M14 41L15 42L14 41M25 41L26 42L25 41z" id="svg_158"/><path style="fill:#515151; stroke:none;" d="M39 41L40 42L39 41M51 41L52 42L51 41z" id="svg_159"/><path style="fill:#a5a5a5; stroke:none;" d="M85 41L86 42L85 41M96 41L97 42L96 41z" id="svg_160"/><path style="fill:#515151; stroke:none;" d="M149 41L150 42L149 41z" id="svg_161"/><path style="fill:#727272; stroke:none;" d="M181 41L182 42L181 41z" id="svg_162"/><path style="fill:#a5a5a5; stroke:none;" d="M194 41L195 42L194 41M213 41L214 42L213 41z" id="svg_163"/><path style="fill:#727272; stroke:none;" d="M223 41L224 42L223 41z" id="svg_164"/><path style="fill:#515151; stroke:none;" d="M14 42L15 43L14 42z" id="svg_165"/><path style="fill:#a5a5a5; stroke:none;" d="M38 42L39 43L38 42z" id="svg_166"/><path style="fill:#515151; stroke:none;" d="M50 42L51 43L50 42M96 42L97 43L96 42M137 42L138 43L137 42M168 42L169 43L168 42z" id="svg_167"/><path style="fill:#727272; stroke:none;" d="M180 42L181 43L180 42M193 42L194 43L193 42M213 42L214 43L213 42z" id="svg_168"/><path style="fill:#a5a5a5; stroke:none;" d="M223 42L224 43L223 42M24 43L25 44L24 43z" id="svg_169"/><path style="fill:#515151; stroke:none;" d="M49 43L50 44L49 43z" id="svg_170"/><path style="fill:#a5a5a5; stroke:none;" d="M86 43L87 44L86 43M136 43L137 44L136 43z" id="svg_171"/><path style="fill:#727272; stroke:none;" d="M168 43L169 44L168 43z" id="svg_172"/><path style="fill:#a5a5a5; stroke:none;" d="M178.667 43.3333L179.333 43.6667L178.667 43.3333z" id="svg_173"/><path style="fill:#515151; stroke:none;" d="M192 43L193 44L192 43M213 43L214 44L213 43z" id="svg_174"/><path style="fill:#a5a5a5; stroke:none;" d="M13 44L14 45L13 44z" id="svg_175"/><path style="fill:#727272; stroke:none;" d="M37 44L38 45L37 44z" id="svg_176"/><path style="fill:#a5a5a5; stroke:none;" d="M97 44L98 45L97 44M147 44L148 45L147 44M168 44L169 45L168 44z" id="svg_177"/><path style="fill:#515151; stroke:none;" d="M178 44L179 45L178 44M191 44L192 45L191 44M13 45L14 46L13 45z" id="svg_178"/><path style="fill:#727272; stroke:none;" d="M23 45L24 46L23 45M87 45L88 46L87 45z" id="svg_179"/><path style="fill:#515151; stroke:none;" d="M97 45L98 46L97 45z" id="svg_180"/><path style="fill:#727272; stroke:none;" d="M135 45L136 46L135 45z" id="svg_181"/><path style="fill:#515151; stroke:none;" d="M146 45L147 46L146 45M190 45L191 46L190 45z" id="svg_182"/><path style="fill:#a5a5a5; stroke:none;" d="M212 45L213 46L212 45z" id="svg_183"/><path style="fill:#515151; stroke:none;" d="M222 45L223 46L222 45M36 46L37 47L36 46z" id="svg_184"/><path style="fill:#a5a5a5; stroke:none;" d="M47 46L48 47L47 46z" id="svg_185"/><path style="fill:#727272; stroke:none;" d="M212 46L213 47L212 46z" id="svg_186"/><path style="fill:#a5a5a5; stroke:none;" d="M222 46L223 47L222 46M12 47L13 48L12 47z" id="svg_187"/><path style="fill:#515151; stroke:none;" d="M46 47L47 48L46 47z" id="svg_188"/><path style="fill:#a5a5a5; stroke:none;" d="M98 47L99 48L98 47z" id="svg_189"/><path style="fill:#515151; stroke:none;" d="M134 47L135 48L134 47z" id="svg_190"/><path style="fill:#727272; stroke:none;" d="M145 47L146 48L145 47z" id="svg_191"/><path style="fill:#515151; stroke:none;" d="M169 47L170 48L169 47M12 48L13 49L12 48z" id="svg_192"/><path style="fill:#a5a5a5; stroke:none;" d="M22 48L23 49L22 48z" id="svg_193"/><path style="fill:#727272; stroke:none;" d="M35 48L36 49L35 48z" id="svg_194"/><path style="fill:#a5a5a5; stroke:none;" d="M88 48L89 49L88 48z" id="svg_195"/><path style="fill:#515151; stroke:none;" d="M98 48L99 49L98 48z" id="svg_196"/><path style="fill:#a5a5a5; stroke:none;" d="M169.333 48.6667L169.667 49.3333L169.333 48.6667M211 48L212 49L211 48z" id="svg_197"/><path style="fill:#727272; stroke:none;" d="M45 49L46 50L45 49z" id="svg_198"/><path style="fill:#515151; stroke:none;" d="M133 49L134 50L133 49z" id="svg_199"/><path style="fill:#a5a5a5; stroke:none;" d="M144 49L145 50L144 49z" id="svg_200"/><path style="fill:#727272; stroke:none;" d="M211 49L212 50L211 49M221 49L222 50L221 49z" id="svg_201"/><path style="fill:#a5a5a5; stroke:none;" d="M11 50L12 51L11 50z" id="svg_202"/><path style="fill:#515151; stroke:none;" d="M21 50L22 51L21 50z" id="svg_203"/><path style="fill:#a5a5a5; stroke:none;" d="M34 50L35 51L34 50z" id="svg_204"/><path style="fill:#515151; stroke:none;" d="M89 50L90 51L89 50z" id="svg_205"/><path style="fill:#a5a5a5; stroke:none;" d="M99 50L100 51L99 50z" id="svg_206"/><path style="fill:#515151; stroke:none;" d="M143 50L144 51L143 50z" id="svg_207"/><path style="fill:#a5a5a5; stroke:none;" d="M186 50L187 51L186 50M221 50L222 51L221 50z" id="svg_208"/><path style="fill:#727272; stroke:none;" d="M11 51L12 52L11 51z" id="svg_209"/><path style="fill:#a5a5a5; stroke:none;" d="M21 51L22 52L21 51z" id="svg_210"/><path style="fill:#727272; stroke:none;" d="M44 51L45 52L44 51z" id="svg_211"/><path style="fill:#a5a5a5; stroke:none;" d="M89 51L90 52L89 51z" id="svg_212"/><path style="fill:#727272; stroke:none;" d="M99 51L100 52L99 51M132 51L133 52L132 51z" id="svg_213"/><path style="fill:#a5a5a5; stroke:none;" d="M143 51L144 52L143 51z" id="svg_214"/><path style="fill:#515151; stroke:none;" d="M170 51L171 52L170 51M186.667 51.3333L187.333 51.6667L186.667 51.3333z" id="svg_215"/><path style="fill:#727272; stroke:none;" d="M188 51L189 52L188 51z" id="svg_216"/><path style="fill:#a5a5a5; stroke:none;" d="M189.667 51.3333L190.333 51.6667L189.667 51.3333M210 51L211 52L210 51z" id="svg_217"/><path style="fill:#515151; stroke:none;" d="M142 52L143 53L142 52z" id="svg_218"/><path style="fill:#727272; stroke:none;" d="M170 52L171 53L170 52z" id="svg_219"/><path style="fill:#515151; stroke:none;" d="M193 52L194 53L193 52z" id="svg_220"/><path style="fill:#a5a5a5; stroke:none;" d="M194 52L195 53L194 52z" id="svg_221"/><path style="fill:#515151; stroke:none;" d="M210 52L211 53L210 52z" id="svg_222"/><path style="fill:#727272; stroke:none;" d="M220 52L221 53L220 52M33 53L34 54L33 53z" id="svg_223"/><path style="fill:#515151; stroke:none;" d="M43 53L44 54L43 53z" id="svg_224" class=""/><path style="fill:#a5a5a5; stroke:none;" d="M131 53L132 54L131 53z" id="svg_225"/><path style="fill:#515151; stroke:none;" d="M170 53L171 54L170 53z" id="svg_226"/><path style="fill:#a5a5a5; stroke:none;" d="M195 53L196 54L195 53M220 53L221 54L220 53M10 54L11 55L10 54z" id="svg_227"/><path style="fill:#727272; stroke:none;" d="M20 54L21 55L20 54z" id="svg_228"/><path style="fill:#a5a5a5; stroke:none;" d="M43 54L44 55L43 54z" id="svg_229"/><path style="fill:#727272; stroke:none;" d="M90 54L91 55L90 54z" id="svg_230"/><path style="fill:#a5a5a5; stroke:none;" d="M100 54L101 55L100 54z" id="svg_231"/><path style="fill:#515151; stroke:none;" d="M141 54L142 55L141 54z" id="svg_232"/><path style="fill:#727272; stroke:none;" d="M169 54L170 55L169 54M209 54L210 55L209 54z" id="svg_233"/><path style="fill:#515151; stroke:none;" d="M10 55L11 56L10 55z" id="svg_234"/><path style="fill:#a5a5a5; stroke:none;" d="M20 55L21 56L20 55M90 55L91 56L90 55z" id="svg_235"/><path style="fill:#515151; stroke:none;" d="M100 55L101 56L100 55z" id="svg_236"/><path style="fill:#a5a5a5; stroke:none;" d="M130 55L131 56L130 55M141 55L142 56L141 55M168 55L169 56L168 55z" id="svg_237"/><path style="fill:#727272; stroke:none;" d="M196 55L197 56L196 55z" id="svg_238"/><path style="fill:#a5a5a5; stroke:none;" d="M219 55L220 56L219 55M32 56L33 57L32 56z" id="svg_239"/><path style="fill:#515151; stroke:none;" d="M42 56L43 57L42 56M130 56L131 57L130 56M140 56L141 57L140 56z" id="svg_240"/><path style="fill:#a5a5a5; stroke:none;" d="M167 56L168 57L167 56z" id="svg_241"/><path style="fill:#515151; stroke:none;" d="M196.333 56.6667L196.667 57.3333L196.333 56.6667z" id="svg_242"/><path style="fill:#a5a5a5; stroke:none;" d="M208 56L209 57L208 56z" id="svg_243"/><path style="fill:#515151; stroke:none;" d="M32 57L33 58L32 57z" id="svg_244"/><path style="fill:#a5a5a5; stroke:none;" d="M42 57L43 58L42 57z" id="svg_245"/><path style="fill:#515151; stroke:none;" d="M91 57L92 58L91 57z" id="svg_246"/><path style="fill:#a5a5a5; stroke:none;" d="M140 57L141 58L140 57M166 57L167 58L166 57z" id="svg_247"/><path style="fill:#727272; stroke:none;" d="M218 57L219 58L218 57z" id="svg_248"/><path style="fill:#a5a5a5; stroke:none;" d="M9 58L10 59L9 58z" id="svg_249"/><path style="fill:#727272; stroke:none;" d="M19 58L20 59L19 58M91 58L92 59L91 58z" id="svg_250"/><path style="fill:#a5a5a5; stroke:none;" d="M101 58L102 59L101 58M129 58L130 59L129 58M148 58L149 59L148 58z" id="svg_251"/><path style="fill:#727272; stroke:none;" d="M149.667 58.3333L150.333 58.6667L149.667 58.3333z" id="svg_252"/><path style="fill:#a5a5a5; stroke:none;" d="M151 58L152 59L151 58M165 58L166 59L165 58M196 58L197 59L196 58M207 58L208 59L207 58z" id="svg_253"/><path style="fill:#727272; stroke:none;" d="M9 59L10 60L9 59z" id="svg_254"/><path style="fill:#a5a5a5; stroke:none;" d="M19 59L20 60L19 59z" id="svg_255"/><path style="fill:#515151; stroke:none;" d="M41 59L42 60L41 59z" id="svg_256"/><path style="fill:#a5a5a5; stroke:none;" d="M91 59L92 60L91 59z" id="svg_257"/><path style="fill:#727272; stroke:none;" d="M101 59L102 60L101 59z" id="svg_258"/><path style="fill:#515151; stroke:none;" d="M129 59L130 60L129 59z" id="svg_259"/><path style="fill:#727272; stroke:none;" d="M139 59L140 60L139 59z" id="svg_260"/><path style="fill:#a5a5a5; stroke:none;" d="M153 59L154 60L153 59z" id="svg_261"/><path style="fill:#515151; stroke:none;" d="M217 59L218 60L217 59M9 60L10 61L9 60z" id="svg_262"/><path style="fill:#a5a5a5; stroke:none;" d="M31.3333 60.6667L31.6667 61.3333L31.3333 60.6667z" id="svg_263"/><path style="fill:#727272; stroke:none;" d="M41 60L42 61L41 60z" id="svg_264"/><path style="fill:#515151; stroke:none;" d="M101 60L102 61L101 60z" id="svg_265"/><path style="fill:#a5a5a5; stroke:none;" d="M181.667 60.3333L182.333 60.6667L181.667 60.3333z" id="svg_266"/><path style="fill:#727272; stroke:none;" d="M183 60L184 61L183 60z" id="svg_267"/><path style="fill:#515151; stroke:none;" d="M184 60L185 61L184 60z" id="svg_268"/><path style="fill:#727272; stroke:none;" d="M206 60L207 61L206 60z" id="svg_269"/><path style="fill:#a5a5a5; stroke:none;" d="M217 60L218 61L217 60M41 61L42 62L41 61M128 61L129 62L128 61z" id="svg_270"/><path style="fill:#515151; stroke:none;" d="M138 61L139 62L138 61z" id="svg_271"/><path style="fill:#a5a5a5; stroke:none;" d="M145 61L146 62L145 61z" id="svg_272"/><path style="fill:#727272; stroke:none;" d="M154 61L155 62L154 61z" id="svg_273"/><path style="fill:#a5a5a5; stroke:none;" d="M188 61L188 62L191 62L188 61z" id="svg_274"/><path style="fill:#727272; stroke:none;" d="M191.667 61.3333L192.333 61.6667L191.667 61.3333z" id="svg_275"/><path style="fill:#a5a5a5; stroke:none;" d="M193 61L194 62L193 61z" id="svg_276"/><path style="fill:#515151; stroke:none;" d="M18 62L19 63L18 62M31.3333 62.6667L31.6667 63.3333L31.3333 62.6667M92 62L93 63L92 62M128 62L129 63L128 62z" id="svg_277"/><path style="fill:#a5a5a5; stroke:none;" d="M138 62L139 63L138 62z" id="svg_278"/><path style="fill:#515151; stroke:none;" d="M145.333 62.6667L145.667 63.3333L145.333 62.6667z" id="svg_279"/><path style="fill:#a5a5a5; stroke:none;" d="M175 62L176 63L175 62z" id="svg_280"/><path style="fill:#515151; stroke:none;" d="M205 62L206 63L205 62z" id="svg_281"/><path style="fill:#a5a5a5; stroke:none;" d="M216 62L217 63L216 62M8.33333 63.6667L8.66667 64.3333L8.33333 63.6667z" id="svg_282"/><path style="fill:#727272; stroke:none;" d="M18 63L19 64L18 63M92 63L93 64L92 63z" id="svg_283"/><path style="fill:#a5a5a5; stroke:none;" d="M102.333 63.6667L102.667 64.3333L102.333 63.6667z" id="svg_284"/><path style="fill:#515151; stroke:none;" d="M161 63L162 64L161 63z" id="svg_285"/><path style="fill:#a5a5a5; stroke:none;" d="M174 63L175 64L174 63M204 63L205 64L204 63M18 64L19 65L18 64z" id="svg_286"/><path style="fill:#515151; stroke:none;" d="M40.3333 64.6667L40.6667 65.3333L40.3333 64.6667z" id="svg_287"/><path style="fill:#a5a5a5; stroke:none;" d="M92 64L93 65L92 64M127.333 64.6667L127.667 65.3333L127.333 64.6667z" id="svg_288"/><path style="fill:#515151; stroke:none;" d="M137 64L138 65L137 64z" id="svg_289"/><path style="fill:#727272; stroke:none;" d="M145 64L146 65L145 64z" id="svg_290"/><path style="fill:#a5a5a5; stroke:none;" d="M155.333 64.6667L155.667 65.3333L155.333 64.6667z" id="svg_291"/><path style="fill:#515151; stroke:none;" d="M160 64L161 65L160 64z" id="svg_292"/><path style="fill:#a5a5a5; stroke:none;" d="M173 64L174 65L173 64M215 64L216 65L215 64z" id="svg_293"/><path style="fill:#727272; stroke:none;" d="M8 65L9 66L8 65M102 65L103 66L102 65M137 65L138 66L137 65z" id="svg_294"/><path style="fill:#a5a5a5; stroke:none;" d="M145 65L146 66L145 65z" id="svg_295"/><path style="fill:#515151; stroke:none;" d="M159 65L160 66L159 65z" id="svg_296"/><path style="fill:#a5a5a5; stroke:none;" d="M172 65L173 66L172 65z" id="svg_297"/><path style="fill:#727272; stroke:none;" d="M203 65L204 66L203 65z" id="svg_298"/><path style="fill:#515151; stroke:none;" d="M214 65L215 66L214 65M8 66L9 67L8 66z" id="svg_299"/><path style="fill:#727272; stroke:none;" d="M40 66L41 67L40 66z" id="svg_300"/><path style="fill:#515151; stroke:none;" d="M102 66L103 67L102 66M127 66L128 67L127 66z" id="svg_301"/><path style="fill:#a5a5a5; stroke:none;" d="M137 66L138 67L137 66z" id="svg_302"/><path style="fill:#515151; stroke:none;" d="M155 66L156 67L155 66z" id="svg_303"/><path style="fill:#727272; stroke:none;" d="M158 66L159 67L158 66M171 66L172 67L171 66z" id="svg_304"/><path style="fill:#a5a5a5; stroke:none;" d="M202 66L203 67L202 66M40 67L41 68L40 67z" id="svg_305"/><path style="fill:#727272; stroke:none;" d="M157 67L158 68L157 67M170 67L171 68L170 67M213 67L214 68L213 67z" id="svg_306"/><path style="fill:#515151; stroke:none;" d="M17 68L18 69L17 68M31 68L32 69L31 68M93 68L94 69L93 68M136 68L137 69L136 68M146 68L147 69L146 68z" id="svg_307"/><path style="fill:#727272; stroke:none;" d="M156 68L157 69L156 68z" id="svg_308"/><path style="fill:#515151; stroke:none;" d="M169 68L170 69L169 68M201 68L202 69L201 68z" id="svg_309"/><path style="fill:#727272; stroke:none;" d="M17.3333 69.6667L17.6667 70.3333L17.3333 69.6667M39 69L40 70L39 69M93 69L94 70L93 69z" id="svg_310"/><path style="fill:#a5a5a5; stroke:none;" d="M126 69L127 70L126 69M136.333 69.6667L136.667 70.3333L136.333 69.6667M146.333 69.6667L146.667 70.3333L146.333 69.6667z" id="svg_311"/><path style="fill:#515151; stroke:none;" d="M168 69L169 70L168 69z" id="svg_312"/><path style="fill:#a5a5a5; stroke:none;" d="M200 69L201 70L200 69M212 69L213 70L212 69z" id="svg_313"/><path style="fill:#727272; stroke:none;" d="M38 70L39 71L38 70z" id="svg_314"/><path style="fill:#a5a5a5; stroke:none;" d="M93 70L93 74L94 74L93 70z" id="svg_315"/><path style="fill:#727272; stroke:none;" d="M126 70L127 71L126 70z" id="svg_316"/><path style="fill:#a5a5a5; stroke:none;" d="M199 70L200 71L199 70z" id="svg_317"/><path style="fill:#515151; stroke:none;" d="M211 70L212 71L211 70z" id="svg_318"/><path style="fill:#a5a5a5; stroke:none;" d="M7 71L7 75L8 75L7 71M17 71L17 75L18 75L17 71M34 71L34 72L37 72L34 71M103 71L103 74L104 74L103 71z" id="svg_319"/><path style="fill:#515151; stroke:none;" d="M126 71L127 72L126 71z" id="svg_320"/><path style="fill:#a5a5a5; stroke:none;" d="M211 71L212 72L211 71z" id="svg_321"/><path style="fill:#515151; stroke:none;" d="M212 72L213 73L212 72M135 73L136 74L135 73z" id="svg_322"/><path style="fill:#727272; stroke:none;" d="M147 73L148 74L147 73z" id="svg_323"/><path style="fill:#515151; stroke:none;" d="M197 73L198 74L197 73z" id="svg_324"/><path style="fill:#a5a5a5; stroke:none;" d="M214 73L215 74L214 73z" id="svg_325"/><path style="fill:#727272; stroke:none;" d="M103 74L103 77L104 77L103 74M135 74L136 75L135 74z" id="svg_326"/><path style="fill:#a5a5a5; stroke:none;" d="M147 74L148 75L147 74z" id="svg_327"/><path style="fill:#727272; stroke:none;" d="M196 74L197 75L196 74z" id="svg_328"/><path style="fill:#515151; stroke:none;" d="M215 74L216 75L215 74z" id="svg_329"/><path style="fill:#727272; stroke:none;" d="M7 75L7 85L8 85L7 75z" id="svg_330"/><path style="fill:#a5a5a5; stroke:none;" d="M125 75L125 79L126 79L125 75M135 75L135 78L136 78L135 75z" id="svg_331"/><path style="fill:#515151; stroke:none;" d="M163 75L164 76L163 75z" id="svg_332"/><path style="fill:#a5a5a5; stroke:none;" d="M164.667 75.3333L165.333 75.6667L164.667 75.3333z" id="svg_333"/><path style="fill:#727272; stroke:none;" d="M195 75L196 76L195 75z" id="svg_334"/><path style="fill:#a5a5a5; stroke:none;" d="M217 75L218 76L217 75z" id="svg_335"/><path style="fill:#515151; stroke:none;" d="M169.667 76.3333L170.333 76.6667L169.667 76.3333z" id="svg_336"/><path style="fill:#a5a5a5; stroke:none;" d="M171 76L172 77L171 76z" id="svg_337"/><path style="fill:#727272; stroke:none;" d="M194 76L195 77L194 76M218 76L219 77L218 76z" id="svg_338"/><path style="fill:#515151; stroke:none;" d="M103 77L103 84L104 84L103 77M172 77L173 78L172 77z" id="svg_339"/><path style="fill:#a5a5a5; stroke:none;" d="M193 77L194 78L193 77z" id="svg_340"/><path style="fill:#515151; stroke:none;" d="M219 77L220 78L219 77z" id="svg_341"/><path style="fill:#727272; stroke:none;" d="M147 78L148 79L147 78z" id="svg_342"/><path style="fill:#515151; stroke:none;" d="M173 78L174 79L173 78z" id="svg_343"/><path style="fill:#727272; stroke:none;" d="M192 78L193 79L192 78M125 79L126 80L125 79M146 79L147 80L146 79M191 79L192 80L191 79z" id="svg_344"/><path style="fill:#515151; stroke:none;" d="M204 79L205 80L204 79z" id="svg_345"/><path style="fill:#a5a5a5; stroke:none;" d="M205 79L206 80L205 79z" id="svg_346"/><path style="fill:#515151; stroke:none;" d="M125 80L125 86L126 86L125 80z" id="svg_347"/><path style="fill:#a5a5a5; stroke:none;" d="M145 80L146 81L145 80M174.333 80.6667L174.667 81.3333L174.333 80.6667z" id="svg_348"/><path style="fill:#515151; stroke:none;" d="M190 80L191 81L190 80z" id="svg_349"/><path style="fill:#fefefe; stroke:none;" d="M154 107C157.511 111.675 166.505 112.051 172 111.981C188.749 111.77 208.949 102.045 214 85C202.498 76.8673 197.642 87.5289 188 94.2785C178.226 101.121 166.053 106.474 154 107z" id="svg_350" class=""/><path style="fill:#727272; stroke:none;" d="M207 80L208 81L207 80z" id="svg_351"/><path style="fill:#a5a5a5; stroke:none;" d="M144 81L145 82L144 81z" id="svg_352"/><path style="fill:#515151; stroke:none;" d="M209 81L210 82L209 81z" id="svg_353"/><path style="fill:#a5a5a5; stroke:none;" d="M143 82L144 83L143 82M187 82L188 83L187 82z" id="svg_354"/><path style="fill:#727272; stroke:none;" d="M210 82L211 83L210 82z" id="svg_355"/><path style="fill:#a5a5a5; stroke:none;" d="M224 82L225 83L224 82z" id="svg_356"/><path style="fill:#515151; stroke:none;" d="M173 83L174 84L173 83z" id="svg_357"/><path style="fill:#a5a5a5; stroke:none;" d="M186 83L187 84L186 83M201 83L202 84L201 83M211 83L212 84L211 83z" id="svg_358"/><path style="fill:#515151; stroke:none;" d="M224 83L225 84L224 83z" id="svg_359"/><path style="fill:#727272; stroke:none;" d="M103 84L103 87L104 87L103 84z" id="svg_360"/><path style="fill:#a5a5a5; stroke:none;" d="M156.667 84.3333L157.333 84.6667L156.667 84.3333z" id="svg_361"/><path style="fill:#727272; stroke:none;" d="M158.667 84.3333L159.333 84.6667L158.667 84.3333z" id="svg_362"/><path style="fill:#515151; stroke:none;" d="M160 84L161 85L160 84M185 84L186 85L185 84z" id="svg_363"/><path style="fill:#a5a5a5; stroke:none;" d="M200 84L201 85L200 84z" id="svg_364"/><path style="fill:#515151; stroke:none;" d="M213 84L214 85L213 84z" id="svg_365"/><path style="fill:#a5a5a5; stroke:none;" d="M7 85L7 89L8 89L7 85M164.667 85.3333L165.333 85.6667L164.667 85.3333z" id="svg_366"/><path style="fill:#727272; stroke:none;" d="M166 85L167 86L166 85z" id="svg_367"/><path style="fill:#515151; stroke:none;" d="M167.667 85.3333L168.333 85.6667L167.667 85.3333M170 85L171 86L170 85z" id="svg_368"/><path style="fill:#a5a5a5; stroke:none;" d="M171 85L172 86L171 85M183 85L184 86L183 85z" id="svg_369"/><path style="fill:#515151; stroke:none;" d="M214 85L215 86L214 85M224 85L225 86L224 85z" id="svg_370"/><path style="fill:#a5a5a5; stroke:none;" d="M17 86L17 89L18 89L17 86z" id="svg_371"/><path style="fill:#727272; stroke:none;" d="M125.333 86.6667L125.667 87.3333L125.333 86.6667z" id="svg_372"/><path style="fill:#a5a5a5; stroke:none;" d="M153 86L154 87L153 86z" id="svg_373"/><path style="fill:#727272; stroke:none;" d="M182 86L183 87L182 86z" id="svg_374"/><path style="fill:#a5a5a5; stroke:none;" d="M224 86L225 87L224 86M93 87L93 90L94 90L93 87M103 87L103 90L104 90L103 87z" id="svg_375"/><path style="fill:#515151; stroke:none;" d="M139 87L140 88L139 87z" id="svg_376"/><path style="fill:#a5a5a5; stroke:none;" d="M152 87L153 88L152 87M180 87L181 88L180 87M213 87L214 88L213 87M125 88L125 92L126 92L125 88z" id="svg_377"/><path style="fill:#515151; stroke:none;" d="M138 88L139 89L138 88z" id="svg_378"/><path style="fill:#a5a5a5; stroke:none;" d="M151 88L152 89L151 88z" id="svg_379"/><path style="fill:#515151; stroke:none;" d="M179 88L180 89L179 88M195 88L196 89L195 88M223 88L224 89L223 88z" id="svg_380"/><path style="fill:#727272; stroke:none;" d="M17 89L18 90L17 89z" id="svg_381"/><path style="fill:#a5a5a5; stroke:none;" d="M135.333 89.6667L135.667 90.3333L135.333 89.6667z" id="svg_382"/><path style="fill:#515151; stroke:none;" d="M137 89L138 90L137 89z" id="svg_383"/><path style="fill:#a5a5a5; stroke:none;" d="M150 89L151 90L150 89z" id="svg_384"/><path style="fill:#727272; stroke:none;" d="M177 89L178 90L177 89M194 89L195 90L194 89M212 89L213 90L212 89z" id="svg_385"/><path style="fill:#a5a5a5; stroke:none;" d="M223 89L224 90L223 89z" id="svg_386"/><path style="fill:#515151; stroke:none;" d="M17 90L18 91L17 90z" id="svg_387"/><path style="fill:#727272; stroke:none;" d="M93 90L94 91L93 90M136 90L137 91L136 90M149 90L150 91L149 90z" id="svg_388"/><path style="fill:#a5a5a5; stroke:none;" d="M175 90L176 91L175 90M193 90L194 91L193 90z" id="svg_389"/><path style="fill:#515151; stroke:none;" d="M93 91L94 92L93 91z" id="svg_390"/><path style="fill:#727272; stroke:none;" d="M148 91L149 92L148 91z" id="svg_391"/><path style="fill:#a5a5a5; stroke:none;" d="M173 91L174 92L173 91z" id="svg_392"/><path style="fill:#515151; stroke:none;" d="M211 91L212 92L211 91z" id="svg_393"/><path style="fill:#a5a5a5; stroke:none;" d="M222 91L223 92L222 91M2 92L3 93L2 92z" id="svg_394"/><path style="fill:#515151; stroke:none;" d="M3 92L4 93L3 92M107 92L108 93L107 92z" id="svg_395"/><path style="fill:#a5a5a5; stroke:none;" d="M108 92L109 93L108 92z" id="svg_396"/><path style="fill:#515151; stroke:none;" d="M147 92L148 93L147 92z" id="svg_397"/><path style="fill:#727272; stroke:none;" d="M171 92L172 93L171 92z" id="svg_398"/><path style="fill:#515151; stroke:none;" d="M190 92L191 93L190 92z" id="svg_399"/><path style="fill:#a5a5a5; stroke:none;" d="M210 92L211 93L210 92z" id="svg_400"/><path style="fill:#727272; stroke:none;" d="M1 93L2 94L1 93z" id="svg_401"/><path style="fill:#515151; stroke:none;" d="M109 93L110 94L109 93M146 93L147 94L146 93z" id="svg_402"/><path style="fill:#a5a5a5; stroke:none;" d="M168 93L169 94L168 93z" id="svg_403"/><path style="fill:#515151; stroke:none;" d="M169 93L170 94L169 93z" id="svg_404"/><path style="fill:#a5a5a5; stroke:none;" d="M189 93L190 94L189 93M209 93L210 94L209 93M221 93L222 94L221 93M0 94L1 95L0 94M110 94L111 95L110 94z" id="svg_405"/><path style="fill:#515151; stroke:none;" d="M145 94L146 95L145 94z" id="svg_406"/><path style="fill:#727272; stroke:none;" d="M166 94L167 95L166 94z" id="svg_407"/><path style="fill:#515151; stroke:none;" d="M187 94L188 95L187 94M220 94L221 95L220 94M0 95L1 96L0 95M126 95L127 96L126 95z" id="svg_408"/><path style="fill:#a5a5a5; stroke:none;" d="M162 95L163 96L162 95z" id="svg_409"/><path style="fill:#727272; stroke:none;" d="M163 95L164 96L163 95z" id="svg_410"/><path style="fill:#a5a5a5; stroke:none;" d="M186 95L187 96L186 95z" id="svg_411"/><path style="fill:#515151; stroke:none;" d="M208 95L209 96L208 95z" id="svg_412"/><path style="fill:#a5a5a5; stroke:none;" d="M126.333 96.6667L126.667 97.3333L126.333 96.6667M158.667 96.3333L159.333 96.6667L158.667 96.3333z" id="svg_413"/><path style="fill:#515151; stroke:none;" d="M160 96L161 97L160 96M184 96L185 97L184 96M207 96L208 97L207 96z" id="svg_414"/><path style="fill:#a5a5a5; stroke:none;" d="M219 96L220 97L219 96M151 97L151 98L154 98L151 97z" id="svg_415"/><path style="fill:#727272; stroke:none;" d="M154 97L155 98L154 97z" id="svg_416"/><path style="fill:#515151; stroke:none;" d="M155 97L156 98L155 97M182 97L183 98L182 97z" id="svg_417"/><path style="fill:#a5a5a5; stroke:none;" d="M183 97L184 98L183 97z" id="svg_418"/><path style="fill:#727272; stroke:none;" d="M206 97L207 98L206 97z" id="svg_419"/><path style="fill:#515151; stroke:none;" d="M218 97L219 98L218 97z" id="svg_420"/><path style="fill:#727272; stroke:none;" d="M0 98L1 99L0 98z" id="svg_421"/><path style="fill:#515151; stroke:none;" d="M110 98L111 99L110 98z" id="svg_422"/><path style="fill:#a5a5a5; stroke:none;" d="M181 98L182 99L181 98z" id="svg_423"/><path style="fill:#727272; stroke:none;" d="M205 98L206 99L205 98z" id="svg_424"/><path style="fill:#a5a5a5; stroke:none;" d="M0 99L1 100L0 99z" id="svg_425"/><path style="fill:#727272; stroke:none;" d="M110 99L111 100L110 99z" id="svg_426"/><path style="fill:#515151; stroke:none;" d="M127.333 99.6667L127.667 100.333L127.333 99.6667z" id="svg_427"/><path style="fill:#a5a5a5; stroke:none;" d="M179 99L180 100L179 99z" id="svg_428"/><path style="fill:#515151; stroke:none;" d="M204 99L205 100L204 99z" id="svg_429"/><path style="fill:#a5a5a5; stroke:none;" d="M217 99L218 100L217 99M110 100L111 101L110 100M177 100L178 101L177 100z" id="svg_430"/><path style="fill:#515151; stroke:none;" d="M203 100L204 101L203 100z" id="svg_431"/><path style="fill:#727272; stroke:none;" d="M216 100L217 101L216 100z" id="svg_432"/><path style="fill:#515151; stroke:none;" d="M11 101L11 102L100 102L73 101L11 101M126 101L127 102L126 101M174 101L175 102L174 101z" id="svg_433"/><path style="fill:#a5a5a5; stroke:none;" d="M175 101L176 102L175 101z" id="svg_434"/><path style="fill:#515151; stroke:none;" d="M215 101L216 102L215 101M1 102L2 103L1 102z" id="svg_435"/><path style="fill:#a5a5a5; stroke:none;" d="M11 102L12 103L11 102z" id="svg_436"/><path style="fill:#727272; stroke:none;" d="M125 102L126 103L125 102M172 102L173 103L172 102z" id="svg_437"/><path style="fill:#a5a5a5; stroke:none;" d="M200 102L201 103L200 102M1 103L2 104L1 103z" id="svg_438"/><path style="fill:#515151; stroke:none;" d="M11 103L12 104L11 103z" id="svg_439"/><path style="fill:#727272; stroke:none;" d="M99 103L100 104L99 103z" id="svg_440"/><path style="fill:#a5a5a5; stroke:none;" d="M109.333 103.667L109.667 104.333L109.333 103.667z" id="svg_441"/><path style="fill:#727272; stroke:none;" d="M124 103L125 104L124 103M169 103L170 104L169 103z" id="svg_442"/><path style="fill:#a5a5a5; stroke:none;" d="M170 103L171 104L170 103z" id="svg_443"/><path style="fill:#727272; stroke:none;" d="M199 103L200 104L199 103z" id="svg_444"/><path style="fill:#a5a5a5; stroke:none;" d="M123 104L124 105L123 104z" id="svg_445"/><path style="fill:#727272; stroke:none;" d="M166 104L167 105L166 104z" id="svg_446"/><path style="fill:#a5a5a5; stroke:none;" d="M167 104L168 105L167 104M197 104L198 105L197 104M12 105L13 106L12 105M98 105L99 106L98 105M122 105L123 106L122 105z" id="svg_447"/><path style="fill:#727272; stroke:none;" d="M162 105L163 106L162 105z" id="svg_448"/><path style="fill:#a5a5a5; stroke:none;" d="M163 105L164 106L163 105z" id="svg_449"/><path style="fill:#515151; stroke:none;" d="M196 105L197 106L196 105z" id="svg_450"/><path style="fill:#a5a5a5; stroke:none;" d="M2 106L3 107L2 106z" id="svg_451"/><path style="fill:#515151; stroke:none;" d="M12 106L13 107L12 106z" id="svg_452"/><path style="fill:#727272; stroke:none;" d="M98 106L99 107L98 106M108 106L109 107L108 106z" id="svg_453"/><path style="fill:#a5a5a5; stroke:none;" d="M121 106L122 107L121 106z" id="svg_454" class=""/><path style="fill:#515151; stroke:none;" d="M157 106L158 107L157 106z" id="svg_455"/><path style="fill:#727272; stroke:none;" d="M158 106L159 107L158 106z" id="svg_456"/><path style="fill:#a5a5a5; stroke:none;" d="M159 106L160 107L159 106z" id="svg_457"/><path style="fill:#515151; stroke:none;" d="M194 106L195 107L194 106z" id="svg_458"/><path style="fill:#a5a5a5; stroke:none;" d="M108 107L109 108L108 107M120 107L121 108L120 107z" id="svg_459"/><path style="fill:#515151; stroke:none;" d="M133 107L134 108L133 107z" id="svg_460"/><path style="fill:#727272; stroke:none;" d="M134 107L135 108L134 107z" id="svg_461"/><path style="fill:#515151; stroke:none;" d="M151 107L152 108L151 107z" id="svg_462"/><path style="fill:#a5a5a5; stroke:none;" d="M152 107L154 109L154 107L152 107z" id="svg_463"/><path style="fill:#727272; stroke:none;" d="M192 107L193 108L192 107z" id="svg_464"/><path style="fill:#515151; stroke:none;" d="M3 108L4 109L3 108z" id="svg_465"/><path style="fill:#727272; stroke:none;" d="M13 108L14 109L13 108z" id="svg_466"/><path style="fill:#a5a5a5; stroke:none;" d="M97 108L98 109L97 108z" id="svg_467"/><path style="fill:#727272; stroke:none;" d="M135 108L136 109L135 108z" id="svg_468"/><path style="fill:#a5a5a5; stroke:none;" d="M189 108L190 109L189 108z" id="svg_469"/><path style="fill:#515151; stroke:none;" d="M190 108L191 109L190 108M208 108L209 109L208 108z" id="svg_470"/><path style="fill:#a5a5a5; stroke:none;" d="M3 109L4 110L3 109z" id="svg_471"/><path style="fill:#515151; stroke:none;" d="M97 109L98 110L97 109z" id="svg_472"/><path style="fill:#727272; stroke:none;" d="M107 109L108 110L107 109z" id="svg_473"/><path style="fill:#a5a5a5; stroke:none;" d="M136 109L137 110L136 109z" id="svg_474"/><path style="fill:#515151; stroke:none;" d="M155 109L156 110L155 109z" id="svg_475"/><path style="fill:#a5a5a5; stroke:none;" d="M156 109L157 110L156 109M186 109L187 110L186 109z" id="svg_476"/><path style="fill:#727272; stroke:none;" d="M187 109L188 110L187 109z" id="svg_477"/><path style="fill:#a5a5a5; stroke:none;" d="M207 109L208 110L207 109M14 110L15 111L14 110M137 110L138 111L137 110z" id="svg_478"/><path style="fill:#515151; stroke:none;" d="M158 110L159 111L158 110z" id="svg_479"/><path style="fill:#a5a5a5; stroke:none;" d="M159 110L160 111L159 110M183 110L184 111L183 110z" id="svg_480"/><path style="fill:#515151; stroke:none;" d="M184 110L185 111L184 110z" id="svg_481"/><path style="fill:#a5a5a5; stroke:none;" d="M206 110L207 111L206 110z" id="svg_482"/><path style="fill:#727272; stroke:none;" d="M4 111L5 112L4 111z" id="svg_483"/><path style="fill:#515151; stroke:none;" d="M106 111L107 112L106 111z" id="svg_484"/><path style="fill:#a5a5a5; stroke:none;" d="M117 111L118 112L117 111M130 111L131 112L130 111z" id="svg_485"/><path style="fill:#515151; stroke:none;" d="M139 111L140 112L139 111M162 111L163 112L162 111z" id="svg_486"/><path style="fill:#727272; stroke:none;" d="M163 111L164 112L163 111z" id="svg_487"/><path style="fill:#a5a5a5; stroke:none;" d="M164.667 111.333L165.333 111.667L164.667 111.333M177.667 111.333L178.333 111.667L177.667 111.333z" id="svg_488"/><path style="fill:#727272; stroke:none;" d="M179 111L180 112L179 111z" id="svg_489"/><path style="fill:#515151; stroke:none;" d="M180 111L181 112L180 111M204 111L205 112L204 111z" id="svg_490"/><path style="fill:#a5a5a5; stroke:none;" d="M4 112L5 113L4 112M15 112L16 113L15 112z" id="svg_491"/><path style="fill:#515151; stroke:none;" d="M97 112L98 113L97 112z" id="svg_492"/><path style="fill:#a5a5a5; stroke:none;" d="M106 112L107 113L106 112z" id="svg_493"/><path style="fill:#515151; stroke:none;" d="M117.333 112.667L117.667 113.333L117.333 112.667z" id="svg_494"/><path style="fill:#a5a5a5; stroke:none;" d="M129 112L130 113L129 112M140 112L141 113L140 112M203 112L204 113L203 112z" id="svg_495"/><path style="fill:#515151; stroke:none;" d="M5 113L6 114L5 113z" id="svg_496"/><path style="fill:#a5a5a5; stroke:none;" d="M128 113L129 114L128 113z" id="svg_497"/><path style="fill:#515151; stroke:none;" d="M142 113L143 114L142 113z" id="svg_498"/><path style="fill:#727272; stroke:none;" d="M201 113L202 114L201 113z" id="svg_499"/><path style="fill:#a5a5a5; stroke:none;" d="M5 114L6 115L5 114z" id="svg_500"/><path style="fill:#727272; stroke:none;" d="M16 114L17 115L16 114z" id="svg_501"/><path style="fill:#a5a5a5; stroke:none;" d="M98 114L99 115L98 114z" id="svg_502"/><path style="fill:#515151; stroke:none;" d="M104 114L105 115L104 114z" id="svg_503"/><path style="fill:#727272; stroke:none;" d="M117 114L118 115L117 114M127 114L128 115L127 114z" id="svg_504"/><path style="fill:#a5a5a5; stroke:none;" d="M143 114L144 115L143 114z" id="svg_505"/><path style="fill:#515151; stroke:none;" d="M199 114L200 115L199 114z" id="svg_506"/><path style="fill:#a5a5a5; stroke:none;" d="M100 115L101 116L100 115z" id="svg_507"/><path style="fill:#727272; stroke:none;" d="M101.667 115.333L102.333 115.667L101.667 115.333z" id="svg_508"/><path style="fill:#a5a5a5; stroke:none;" d="M103 115L104 116L103 115z" id="svg_509"/><path style="fill:#727272; stroke:none;" d="M126 115L127 116L126 115z" id="svg_510"/><path style="fill:#a5a5a5; stroke:none;" d="M145 115L146 116L145 115z" id="svg_511"/><path style="fill:#515151; stroke:none;" d="M197 115L198 116L197 115z" id="svg_512"/><path style="fill:#a5a5a5; stroke:none;" d="M6 116L7 117L6 116z" id="svg_513"/><path style="fill:#515151; stroke:none;" d="M17 116L18 117L17 116z" id="svg_514"/><path style="fill:#a5a5a5; stroke:none;" d="M118 116L119 117L118 116z" id="svg_515"/><path style="fill:#727272; stroke:none;" d="M125 116L126 117L125 116z" id="svg_516"/><path style="fill:#a5a5a5; stroke:none;" d="M147 116L148 117L147 116z" id="svg_517"/><path style="fill:#515151; stroke:none;" d="M195 116L196 117L195 116z" id="svg_518"/><path style="fill:#a5a5a5; stroke:none;" d="M18 117L19 118L18 117M119 117L120 118L119 117z" id="svg_519"/><path style="fill:#515151; stroke:none;" d="M120 117L121 118L120 117M123 117L124 118L123 117z" id="svg_520"/><path style="fill:#a5a5a5; stroke:none;" d="M124 117L125 118L124 117M149 117L150 118L149 117z" id="svg_521"/><path style="fill:#515151; stroke:none;" d="M150 117L151 118L150 117z" id="svg_522"/><path style="fill:#a5a5a5; stroke:none;" d="M193 117L194 118L193 117M7 118L8 119L7 118M152 118L153 119L152 118z" id="svg_523"/><path style="fill:#727272; stroke:none;" d="M190 118L191 119L190 118z" id="svg_524"/><path style="fill:#515151; stroke:none;" d="M8 119L9 120L8 119M19 119L20 120L19 119z" id="svg_525"/><path style="fill:#a5a5a5; stroke:none;" d="M154.667 119.333L155.333 119.667L154.667 119.333z" id="svg_526"/><path style="fill:#515151; stroke:none;" d="M156 119L157 120L156 119M186 119L187 120L186 119z" id="svg_527"/><path style="fill:#a5a5a5; stroke:none;" d="M187 119L188 120L187 119z" id="svg_528"/><path style="fill:#727272; stroke:none;" d="M20 120L21 121L20 120z" id="svg_529"/><path style="fill:#a5a5a5; stroke:none;" d="M158.667 120.333L159.333 120.667L158.667 120.333z" id="svg_530"/><path style="fill:#515151; stroke:none;" d="M160 120L161 121L160 120M182 120L183 121L182 120z" id="svg_531"/><path style="fill:#a5a5a5; stroke:none;" d="M183.667 120.333L184.333 120.667L183.667 120.333z" id="svg_532"/><path style="fill:#727272; stroke:none;" d="M9 121L10 122L9 121z" id="svg_533"/><path style="fill:#a5a5a5; stroke:none;" d="M21 121L22 122L21 121M164 121L164 122L167 122L164 121z" id="svg_534"/><path style="fill:#727272; stroke:none;" d="M167 121L168 122L167 121z" id="svg_535"/><path style="fill:#515151; stroke:none;" d="M168 121L168 122L175 122L168 121z" id="svg_536"/><path style="fill:#727272; stroke:none;" d="M175.667 121.333L176.333 121.667L175.667 121.333z" id="svg_537"/><path style="fill:#a5a5a5; stroke:none;" d="M177.667 121.333L178.333 121.667L177.667 121.333M10 123L11 124L10 123M90.6667 123.333L91.3333 123.667L90.6667 123.333z" id="svg_538"/><path style="fill:#727272; stroke:none;" d="M92 123L93 124L92 123z" id="svg_539"/><path style="fill:#515151; stroke:none;" d="M93.6667 123.333L94.3333 123.667L93.6667 123.333z" id="svg_540"/><path style="stroke: none;" d="M95 123.425C82.9044 125.072 71.2538 128.662 62.1705 137.3C43.4376 155.115 43.2984 187.482 61.0934 205.961C74.9102 220.308 96.1716 223.056 115 220.714C134.671 218.266 156.129 211.402 173 200.934C180.576 196.234 188.355 190.156 190.471 181C193.912 166.109 184.907 154.508 173 146.696C152.182 133.038 120.413 119.966 95 123.425z" id="svg_541" class="selected" fill="#b80404" fill-opacity="1"/><path style="fill:#515151; stroke:none;" d="M108.667 123.333L109.333 123.667L108.667 123.333z" id="svg_542"/><path style="fill:#727272; stroke:none;" d="M110 123L111 124L110 123z" id="svg_543"/><path style="fill:#a5a5a5; stroke:none;" d="M111.667 123.333L112.333 123.667L111.667 123.333z" id="svg_544"/><path style="fill:#727272; stroke:none;" d="M11 124L12 125L11 124z" id="svg_545"/><path style="fill:#a5a5a5; stroke:none;" d="M85.6667 124.333L86.3333 124.667L85.6667 124.333z" id="svg_546"/><path style="fill:#515151; stroke:none;" d="M87 124L88 125L87 124M116 124L117 125L116 124z" id="svg_547"/><path style="fill:#a5a5a5; stroke:none;" d="M117.667 124.333L118.333 124.667L117.667 124.333z" id="svg_548"/><path style="fill:#515151; stroke:none;" d="M12 125L13 126L12 125z" id="svg_549"/><path style="fill:#a5a5a5; stroke:none;" d="M82 125L83 126L82 125z" id="svg_550"/><path style="fill:#515151; stroke:none;" d="M83 125L84 126L83 125z" id="svg_551"/><path style="fill:#727272; stroke:none;" d="M121 125L122 126L121 125z" id="svg_552"/><path style="fill:#a5a5a5; stroke:none;" d="M122 125L123 126L122 125M79 126L80 127L79 126z" id="svg_553"/><path style="fill:#727272; stroke:none;" d="M125 126L126 127L125 126z" id="svg_554"/><path style="fill:#a5a5a5; stroke:none;" d="M126 126L127 127L126 126M13 127L14 128L13 127M76 127L77 128L76 127z" id="svg_555"/><path style="fill:#515151; stroke:none;" d="M77 127L78 128L77 127M128 127L129 128L128 127z" id="svg_556"/><path style="fill:#a5a5a5; stroke:none;" d="M129 127L130 128L129 127M14 128L15 129L14 128M28 128L29 129L28 128M74 128L75 129L74 128z" id="svg_557"/><path style="fill:#515151; stroke:none;" d="M75 128L76 129L75 128z" id="svg_558"/><path style="fill:#727272; stroke:none;" d="M132 128L133 129L132 128z" id="svg_559"/><path style="fill:#a5a5a5; stroke:none;" d="M133 128L134 129L133 128z" id="svg_560"/><path style="fill:#727272; stroke:none;" d="M15 129L16 130L15 129z" id="svg_561"/><path style="fill:#a5a5a5; stroke:none;" d="M29 129L30 130L29 129M72 129L73 130L72 129z" id="svg_562"/><path style="fill:#515151; stroke:none;" d="M73 129L74 130L73 129z" id="svg_563"/><path style="fill:#727272; stroke:none;" d="M135 129L136 130L135 129z" id="svg_564"/><path style="fill:#a5a5a5; stroke:none;" d="M136 129L137 130L136 129z" id="svg_565"/><path style="fill:#515151; stroke:none;" d="M16 130L17 131L16 130M30 130L31 131L30 130M71 130L72 131L71 130z" id="svg_566"/><path style="fill:#727272; stroke:none;" d="M138 130L139 131L138 130z" id="svg_567"/><path style="fill:#a5a5a5; stroke:none;" d="M139 130L140 131L139 130z" id="svg_568"/><path style="fill:#515151; stroke:none;" d="M17 131L18 132L17 131z" id="svg_569"/><path style="fill:#a5a5a5; stroke:none;" d="M32 131L33 132L32 131M69 131L70 132L69 131z" id="svg_570"/><path style="fill:#727272; stroke:none;" d="M141 131L142 132L141 131z" id="svg_571"/><path style="fill:#515151; stroke:none;" d="M18 132L19 133L18 132M33 132L34 133L33 132z" id="svg_572"/><path style="fill:#a5a5a5; stroke:none;" d="M34 132L35 133L34 132z" id="svg_573"/><path style="fill:#515151; stroke:none;" d="M68 132L69 133L68 132M95.6667 132.333L96.3333 132.667L95.6667 132.333z" id="svg_574"/><path style="fill:#727272; stroke:none;" d="M97 132L97 133L100 133L97 132z" id="svg_575"/><path style="fill:#a5a5a5; stroke:none;" d="M100.667 132.333L101.333 132.667L100.667 132.333z" id="svg_576"/><path style="fill:#727272; stroke:none;" d="M102 132L102 133L105 133L102 132z" id="svg_577"/><path style="fill:#515151; stroke:none;" d="M105.667 132.333L106.333 132.667L105.667 132.333M143 132L144 133L143 132z" id="svg_578"/><path style="fill:#a5a5a5; stroke:none;" d="M144 132L145 133L144 132z" id="svg_579"/><path style="fill:#515151; stroke:none;" d="M19 133L20 134L19 133z" id="svg_580"/><path style="fill:#727272; stroke:none;" d="M35 133L36 134L35 133z" id="svg_581"/><path style="fill:#a5a5a5; stroke:none;" d="M66 133L67 134L66 133z" id="svg_582"/><path style="fill:#727272; stroke:none;" d="M89 133L90 134L89 133z" id="svg_583"/><path style="fill:#a5a5a5; stroke:none;" d="M90.6667 133.333L91.3333 133.667L90.6667 133.333z" id="svg_584"/><path style="fill:#fefefe; stroke:none;" d="M92 133.439C63.0836 137.991 45.7724 173.2 66.2099 196.999C78.996 211.888 98.7978 213.618 117 210.565C134.072 207.701 152.137 202.438 167 193.385C173.547 189.397 180.565 184.192 181.632 176C183.084 164.856 172.287 157.383 164 152.453C143.842 140.461 115.831 129.688 92 133.439z" id="svg_585" class=""/><path style="fill:#a5a5a5; stroke:none;" d="M111.667 133.333L112.333 133.667L111.667 133.333z" id="svg_586"/><path style="fill:#727272; stroke:none;" d="M113 133L114 134L113 133z" id="svg_587"/><path style="fill:#515151; stroke:none;" d="M114 133L115 134L114 133M146 133L147 134L146 133z" id="svg_588"/><path style="fill:#a5a5a5; stroke:none;" d="M147 133L148 134L147 133z" id="svg_589"/><path style="fill:#727272; stroke:none;" d="M20 134L21 135L20 134M36 134L37 135L36 134M65 134L66 135L65 134z" id="svg_590"/><path style="fill:#515151; stroke:none;" d="M85 134L86 135L85 134z" id="svg_591"/><path style="fill:#a5a5a5; stroke:none;" d="M86 134L87 135L86 134M117 134L118 135L117 134z" id="svg_592"/><path style="fill:#727272; stroke:none;" d="M118 134L119 135L118 134z" id="svg_593"/><path style="fill:#a5a5a5; stroke:none;" d="M149 134L150 135L149 134M21 135L22 136L21 135z" id="svg_594"/><path style="fill:#515151; stroke:none;" d="M64 135L65 136L64 135M82 135L83 136L82 135z" id="svg_595"/><path style="fill:#a5a5a5; stroke:none;" d="M83 135L84 136L83 135M121 135L122 136L121 135z" id="svg_596"/><path style="fill:#727272; stroke:none;" d="M122 135L123 136L122 135M151 135L152 136L151 135z" id="svg_597"/><path style="fill:#a5a5a5; stroke:none;" d="M22 136L23 137L22 136M37.3333 136.667L37.6667 137.333L37.3333 136.667M80 136L81 137L80 136M125 136L126 137L125 136z" id="svg_598"/><path style="fill:#515151; stroke:none;" d="M126 136L127 137L126 136M153 136L154 137L153 136z" id="svg_599"/><path style="fill:#a5a5a5; stroke:none;" d="M154 136L155 137L154 136z" id="svg_600"/><path style="fill:#515151; stroke:none;" d="M24 137L25 138L24 137z" id="svg_601"/><path style="fill:#a5a5a5; stroke:none;" d="M78 137L79 138L78 137M128 137L129 138L128 137z" id="svg_602"/><path style="fill:#727272; stroke:none;" d="M129 137L130 138L129 137z" id="svg_603"/><path style="fill:#a5a5a5; stroke:none;" d="M156 137L157 138L156 137z" id="svg_604"/><path style="fill:#727272; stroke:none;" d="M76 138L77 139L76 138z" id="svg_605"/><path style="fill:#a5a5a5; stroke:none;" d="M131 138L132 139L131 138z" id="svg_606"/><path style="fill:#727272; stroke:none;" d="M132 138L133 139L132 138z" id="svg_607"/><path style="fill:#a5a5a5; stroke:none;" d="M158 138L159 139L158 138z" id="svg_608"/><path style="fill:#515151; stroke:none;" d="M36 139L37 140L36 139M74 139L75 140L74 139z" id="svg_609"/><path style="fill:#727272; stroke:none;" d="M135 139L136 140L135 139z" id="svg_610"/><path style="fill:#a5a5a5; stroke:none;" d="M160 139L161 140L160 139z" id="svg_611"/><path style="fill:#515151; stroke:none;" d="M59 140L60 141L59 140z" id="svg_612"/><path style="fill:#a5a5a5; stroke:none;" d="M73 140L74 141L73 140M137 140L138 141L137 140z" id="svg_613"/><path style="fill:#515151; stroke:none;" d="M138 140L139 141L138 140z" id="svg_614"/><path style="fill:#a5a5a5; stroke:none;" d="M162 140L163 141L162 140z" id="svg_615"/><path style="fill:#515151; stroke:none;" d="M21 141L22 142L21 141M58 141L59 142L58 141z" id="svg_616"/><path style="fill:#a5a5a5; stroke:none;" d="M140 141L141 142L140 141z" id="svg_617"/><path style="fill:#515151; stroke:none;" d="M141 141L142 142L141 141z" id="svg_618"/><path style="fill:#a5a5a5; stroke:none;" d="M164 141L165 142L164 141M20 142L21 143L20 142z" id="svg_619"/><path style="fill:#515151; stroke:none;" d="M33 142L34 143L33 142z" id="svg_620"/><path style="fill:#a5a5a5; stroke:none;" d="M57 142L58 143L57 142z" id="svg_621"/><path style="fill:#515151; stroke:none;" d="M70 142L71 143L70 142z" id="svg_622"/><path style="fill:#a5a5a5; stroke:none;" d="M143 142L144 143L143 142M166 142L167 143L166 142z" id="svg_623"/><path style="fill:#727272; stroke:none;" d="M32 143L33 144L32 143z" id="svg_624"/><path style="fill:#515151; stroke:none;" d="M69 143L70 144L69 143z" id="svg_625"/><path style="fill:#a5a5a5; stroke:none;" d="M145 143L146 144L145 143z" id="svg_626"/><path style="fill:#515151; stroke:none;" d="M146 143L147 144L146 143M167 143L168 144L167 143z" id="svg_627"/><path style="fill:#727272; stroke:none;" d="M31 144L32 145L31 144z" id="svg_628"/><path style="fill:#515151; stroke:none;" d="M68 144L69 145L68 144z" id="svg_629"/><path style="fill:#727272; stroke:none;" d="M148 144L149 145L148 144M169 144L170 145L169 144M18 145L19 146L18 145M30 145L31 146L30 145M55 145L56 146L55 145z" id="svg_630"/><path style="fill:#515151; stroke:none;" d="M67 145L68 146L67 145z" id="svg_631"/><path style="fill:#a5a5a5; stroke:none;" d="M150 145L151 146L150 145M171 145L172 146L171 145z" id="svg_632"/><path style="fill:#515151; stroke:none;" d="M29 146L30 147L29 146M66 146L67 147L66 146z" id="svg_633"/><path style="fill:#a5a5a5; stroke:none;" d="M152 146L153 147L152 146z" id="svg_634"/><path style="fill:#515151; stroke:none;" d="M172 146L173 147L172 146M17 147L18 148L17 147z" id="svg_635"/><path style="fill:#a5a5a5; stroke:none;" d="M99 147L99 148L107 148L99 147M154 147L155 148L154 147z" id="svg_636"/><path style="fill:#515151; stroke:none;" d="M155 147L156 148L155 147z" id="svg_637"/><path style="fill:#a5a5a5; stroke:none;" d="M174 147L175 148L174 147M16 148L17 149L16 148M53 148L54 149L53 148M93.6667 148.333L94.3333 148.667L93.6667 148.333z" id="svg_638"/><path style="fill:#515151; stroke:none;" d="M95 148L96 149L95 148z" id="svg_639"/><path style="stroke: none;" d="M96 148.465C77.0004 151.89 66.1499 173.94 81.1049 188.895C89.8443 197.634 103.644 197.86 115 195.689C119.079 194.909 123.354 193.477 127 191.482C141.141 183.747 145.373 168.372 131.985 157.379C122.638 149.704 107.85 146.328 96 148.465z" id="svg_640" class="" fill="#b80404" fill-opacity="1"/><path style="fill:#515151; stroke:none;" d="M110 148L111 149L110 148z" id="svg_641"/><path style="fill:#727272; stroke:none;" d="M111 148L112 149L111 148z" id="svg_642"/><path style="fill:#a5a5a5; stroke:none;" d="M112 148L113 149L112 148M156 148L157 149L156 148z" id="svg_643"/><path style="fill:#515151; stroke:none;" d="M157 148L158 149L157 148M175 148L176 149L175 148z" id="svg_644"/><path style="fill:#a5a5a5; stroke:none;" d="M27 149L28 150L27 149M64 149L65 150L64 149M90 149L91 150L90 149z" id="svg_645"/><path style="fill:#515151; stroke:none;" d="M91 149L92 150L91 149M115 149L116 150L115 149z" id="svg_646"/><path style="fill:#a5a5a5; stroke:none;" d="M116 149L117 150L116 149M158 149L159 150L158 149M15 150L16 151L15 150z" id="svg_647"/><path style="fill:#515151; stroke:none;" d="M26 150L27 151L26 150z" id="svg_648"/><path style="fill:#a5a5a5; stroke:none;" d="M52 150L53 151L52 150z" id="svg_649"/><path style="fill:#515151; stroke:none;" d="M63 150L64 151L63 150z" id="svg_650"/><path style="fill:#727272; stroke:none;" d="M88 150L89 151L88 150z" id="svg_651"/><path style="fill:#515151; stroke:none;" d="M118 150L119 151L118 150z" id="svg_652"/><path style="fill:#a5a5a5; stroke:none;" d="M119 150L120 151L119 150M160 150L161 151L160 150M178 150L179 151L178 150z" id="svg_653"/><path style="fill:#727272; stroke:none;" d="M86 151L87 152L86 151z" id="svg_654"/><path style="fill:#515151; stroke:none;" d="M121 151L122 152L121 151z" id="svg_655"/><path style="fill:#a5a5a5; stroke:none;" d="M122 151L123 152L122 151M162 151L163 152L162 151z" id="svg_656"/><path style="fill:#727272; stroke:none;" d="M179 151L180 152L179 151z" id="svg_657"/><path style="fill:#a5a5a5; stroke:none;" d="M14 152L15 153L14 152z" id="svg_658"/><path style="fill:#727272; stroke:none;" d="M25 152L26 153L25 152z" id="svg_659"/><path style="fill:#a5a5a5; stroke:none;" d="M51 152L52 153L51 152z" id="svg_660"/><path style="fill:#727272; stroke:none;" d="M62 152L63 153L62 152z" id="svg_661"/><path style="fill:#a5a5a5; stroke:none;" d="M84 152L85 153L84 152M124 152L125 153L124 152z" id="svg_662"/><path style="fill:#515151; stroke:none;" d="M164 152L165 153L164 152M180 152L181 153L180 152M51 153L52 154L51 153M83 153L84 154L83 153z" id="svg_663"/><path style="fill:#a5a5a5; stroke:none;" d="M126 153L127 154L126 153M165 153L166 154L165 153z" id="svg_664"/><path style="fill:#515151; stroke:none;" d="M181 153L182 154L181 153z" id="svg_665"/><path style="fill:#a5a5a5; stroke:none;" d="M13 154L14 155L13 154M24 154L25 155L24 154M61 154L62 155L61 154z" id="svg_666"/><path style="fill:#515151; stroke:none;" d="M127 154L128 155L127 154z" id="svg_667"/><path style="fill:#727272; stroke:none;" d="M167 154L168 155L167 154z" id="svg_668"/><path style="fill:#515151; stroke:none;" d="M182 154L183 155L182 154z" id="svg_669"/><path style="fill:#727272; stroke:none;" d="M13 155L14 156L13 155M50 155L51 156L50 155M129 155L130 156L129 155z" id="svg_670"/><path style="fill:#a5a5a5; stroke:none;" d="M168 155L169 156L168 155z" id="svg_671"/><path style="fill:#515151; stroke:none;" d="M183 155L184 156L183 155z" id="svg_672"/><path style="fill:#a5a5a5; stroke:none;" d="M23 156L24 157L23 156M60 156L61 157L60 156z" id="svg_673"/><path style="fill:#727272; stroke:none;" d="M170 156L171 157L170 156z" id="svg_674"/><path style="fill:#515151; stroke:none;" d="M184 156L185 157L184 156z" id="svg_675"/><path style="fill:#a5a5a5; stroke:none;" d="M12 157L13 158L12 157M49 157L50 158L49 157z" id="svg_676"/><path style="fill:#515151; stroke:none;" d="M97 157L98 158L97 157z" id="svg_677"/><path style="fill:#727272; stroke:none;" d="M98 157L99 158L98 157z" id="svg_678"/><path style="fill:#a5a5a5; stroke:none;" d="M99 157L99 158L106 158L99 157z" id="svg_679"/><path style="fill:#727272; stroke:none;" d="M106.667 157.333L107.333 157.667L106.667 157.333z" id="svg_680"/><path style="fill:#515151; stroke:none;" d="M108 157L109 158L108 157z" id="svg_681"/><path style="fill:#a5a5a5; stroke:none;" d="M132 157L133 158L132 157M171 157L172 158L171 157z" id="svg_682"/><path style="fill:#727272; stroke:none;" d="M185 157L186 158L185 157z" id="svg_683"/><path style="fill:#515151; stroke:none;" d="M12 158L13 159L12 158z" id="svg_684"/><path style="fill:#727272; stroke:none;" d="M22 158L23 159L22 158M49 158L50 159L49 158z" id="svg_685"/><path style="fill:#515151; stroke:none;" d="M59 158L60 159L59 158M78 158L79 159L78 158z" id="svg_686"/><path style="fill:#727272; stroke:none;" d="M94 158L95 159L94 158z" id="svg_687"/><path style="fill:#a5a5a5; stroke:none;" d="M95 158L96 159L95 158z" id="svg_688"/><path style="fill:#fefefe; stroke:none;" d="M96 158.479C85.3702 160.674 79.5966 173.699 88.1088 181.786C94.8427 188.184 105.511 187.852 114 185.985C125.647 183.422 137.23 173.202 123.996 163.638C116.435 158.174 105.036 156.613 96 158.479z" id="svg_689"/><path style="fill:#a5a5a5; stroke:none;" d="M111 158L112 159L111 158z" id="svg_690"/><path style="fill:#727272; stroke:none;" d="M112 158L113 159L112 158z" id="svg_691"/><path style="fill:#a5a5a5; stroke:none;" d="M133 158L134 159L133 158M186 158L187 159L186 158z" id="svg_692"/><path style="fill:#515151; stroke:none;" d="M49 159L50 160L49 159z" id="svg_693"/><path style="fill:#a5a5a5; stroke:none;" d="M59 159L60 160L59 159M77 159L78 160L77 159z" id="svg_694"/><path style="fill:#515151; stroke:none;" d="M91 159L92 160L91 159z" id="svg_695"/><path style="fill:#a5a5a5; stroke:none;" d="M115 159L116 160L115 159z" id="svg_696"/><path style="fill:#515151; stroke:none;" d="M116 159L117 160L116 159z" id="svg_697"/><path style="fill:#a5a5a5; stroke:none;" d="M134 159L135 160L134 159M11 160L12 161L11 160z" id="svg_698"/><path style="fill:#515151; stroke:none;" d="M21.3333 160.667L21.6667 161.333L21.3333 160.667z" id="svg_699"/><path style="fill:#a5a5a5; stroke:none;" d="M90 160L91 161L90 160M118 160L119 161L118 160M135 160L136 161L135 160z" id="svg_700"/><path style="fill:#515151; stroke:none;" d="M175 160L176 161L175 160M187 160L188 161L187 160z" id="svg_701"/><path style="fill:#727272; stroke:none;" d="M11 161L12 162L11 161z" id="svg_702"/><path style="fill:#a5a5a5; stroke:none;" d="M22 161L22 162L37 162L22 161M48.3333 161.667L48.6667 162.333L48.3333 161.667z" id="svg_703"/><path style="fill:#515151; stroke:none;" d="M58 161L59 162L58 161z" id="svg_704"/><path style="fill:#727272; stroke:none;" d="M76 161L77 162L76 161z" id="svg_705"/><path style="fill:#515151; stroke:none;" d="M88 161L89 162L88 161z" id="svg_706"/><path style="fill:#a5a5a5; stroke:none;" d="M120 161L121 162L120 161M136 161L137 162L136 161z" id="svg_707"/><path style="fill:#515151; stroke:none;" d="M176 161L177 162L176 161z" id="svg_708"/><path style="fill:#a5a5a5; stroke:none;" d="M188 161L189 162L188 161M38 162L39 163L38 162M58 162L59 163L58 162z" id="svg_709"/><path style="fill:#727272; stroke:none;" d="M87 162L88 163L87 162z" id="svg_710"/><path style="fill:#a5a5a5; stroke:none;" d="M122 162L123 163L122 162z" id="svg_711"/><path style="fill:#515151; stroke:none;" d="M48 163L49 164L48 163z" id="svg_712"/><path style="fill:#727272; stroke:none;" d="M75 163L76 164L75 163M86 163L87 164L86 163z" id="svg_713"/><path style="fill:#515151; stroke:none;" d="M124 163L125 164L124 163M137 163L138 164L137 163z" id="svg_714"/><path style="fill:#a5a5a5; stroke:none;" d="M189 163L190 164L189 163M10 164L11 165L10 164z" id="svg_715"/><path style="fill:#515151; stroke:none;" d="M39 164L40 165L39 164z" id="svg_716"/><path style="fill:#a5a5a5; stroke:none;" d="M125 164L126 165L125 164M138 164L139 165L138 164M178 164L179 165L178 164z" id="svg_717"/><path style="fill:#515151; stroke:none;" d="M189 164L190 165L189 164z" id="svg_718"/><path style="fill:#727272; stroke:none;" d="M10.3333 165.667L10.6667 166.333L10.3333 165.667z" id="svg_719"/><path style="fill:#a5a5a5; stroke:none;" d="M74 165L75 166L74 165M85 165L86 166L85 165M126 165L127 166L126 165z" id="svg_720"/><path style="fill:#727272; stroke:none;" d="M179 165L180 166L179 165M57.3333 166.667L57.6667 167.333L57.3333 166.667M74 166L75 167L74 166z" id="svg_721"/><path style="fill:#515151; stroke:none;" d="M84 166L85 167L84 166z" id="svg_722"/><path style="fill:#a5a5a5; stroke:none;" d="M127 166L128 167L127 166M139 166L140 167L139 166M190 166L191 167L190 166M10 167L11 168L10 167M47 167L47 177L48 177L47 167z" id="svg_723"/><path style="fill:#515151; stroke:none;" d="M74 167L75 168L74 167z" id="svg_724"/><path style="fill:#a5a5a5; stroke:none;" d="M84 167L85 168L84 167M128 167L129 168L128 167M180 167L181 168L180 167z" id="svg_725"/><path style="fill:#515151; stroke:none;" d="M39 168L40 169L39 168z" id="svg_726"/><path style="fill:#a5a5a5; stroke:none;" d="M57 168L57 177L58 177L57 168z" id="svg_727"/><path style="fill:#727272; stroke:none;" d="M129 168L130 169L129 168z" id="svg_728"/><path style="fill:#a5a5a5; stroke:none;" d="M11 169L12 170L11 169z" id="svg_729"/><path style="fill:#515151; stroke:none;" d="M83 169L84 170L83 169z" id="svg_730"/><path style="fill:#a5a5a5; stroke:none;" d="M140 169L141 170L140 169z" id="svg_731"/><path style="fill:#515151; stroke:none;" d="M181 169L182 170L181 169z" id="svg_732"/><path style="fill:#a5a5a5; stroke:none;" d="M191 169L191 172L192 172L191 169M12 170L13 171L12 170z" id="svg_733"/><path style="fill:#515151; stroke:none;" d="M37 170L38 171L37 170z" id="svg_734"/><path style="fill:#a5a5a5; stroke:none;" d="M83 170L83 174L84 174L83 170M130 170L131 171L130 170z" id="svg_735"/><path style="fill:#515151; stroke:none;" d="M140 170L141 171L140 170z" id="svg_736"/><path style="fill:#a5a5a5; stroke:none;" d="M181.333 170.667L181.667 171.333L181.333 170.667M73 171L73 174L74 174L73 171z" id="svg_737"/><path style="fill:#727272; stroke:none;" d="M191 172L192 173L191 172z" id="svg_738"/><path style="fill:#515151; stroke:none;" d="M191.333 173.667L191.667 174.333L191.333 173.667z" id="svg_739"/><path style="fill:#727272; stroke:none;" d="M83 174L84 175L83 174z" id="svg_740"/><path style="fill:#a5a5a5; stroke:none;" d="M130 175L131 176L130 175z" id="svg_741"/><path style="fill:#515151; stroke:none;" d="M140 175L141 176L140 175z" id="svg_742"/><path style="fill:#727272; stroke:none;" d="M191.333 175.667L191.667 176.333L191.333 175.667z" id="svg_743"/><path style="fill:#a5a5a5; stroke:none;" d="M140 176L141 177L140 176z" id="svg_744"/><path style="fill:#727272; stroke:none;" d="M57 177L58 178L57 177M74 177L75 178L74 177M84 177L85 178L84 177M129 177L130 178L129 177z" id="svg_745"/><path style="fill:#a5a5a5; stroke:none;" d="M181 177L182 178L181 177M191.333 177.667L191.667 178.333L191.333 177.667z" id="svg_746"/><path style="fill:#515151; stroke:none;" d="M57 178L58 179L57 178z" id="svg_747"/><path style="fill:#a5a5a5; stroke:none;" d="M74 178L75 179L74 178M128 178L129 179L128 178z" id="svg_748"/><path style="fill:#727272; stroke:none;" d="M181 178L182 179L181 178M85 179L86 180L85 179z" id="svg_749"/><path style="fill:#a5a5a5; stroke:none;" d="M127 179L128 180L127 179M139 179L140 180L139 179z" id="svg_750"/><path style="fill:#515151; stroke:none;" d="M48 180L49 181L48 180M75 180L76 181L75 180z" id="svg_751"/><path style="fill:#a5a5a5; stroke:none;" d="M86 180L87 181L86 180z" id="svg_752"/><path style="fill:#727272; stroke:none;" d="M126 180L127 181L126 180z" id="svg_753"/><path style="fill:#a5a5a5; stroke:none;" d="M180 180L181 181L180 180z" id="svg_754"/><path style="fill:#727272; stroke:none;" d="M48 181L49 182L48 181z" id="svg_755"/><path style="fill:#a5a5a5; stroke:none;" d="M58 181L59 182L58 181M75 181L76 182L75 181M87 181L88 182L87 181z" id="svg_756"/><path style="fill:#515151; stroke:none;" d="M125 181L126 182L125 181z" id="svg_757"/><path style="fill:#a5a5a5; stroke:none;" d="M138 181L139 182L138 181z" id="svg_758"/><path style="fill:#515151; stroke:none;" d="M180 181L181 182L180 181z" id="svg_759"/><path style="fill:#727272; stroke:none;" d="M190 181L191 182L190 181z" id="svg_760"/><path style="fill:#a5a5a5; stroke:none;" d="M48 182L49 183L48 182z" id="svg_761"/><path style="fill:#727272; stroke:none;" d="M58 182L59 183L58 182z" id="svg_762"/><path style="fill:#515151; stroke:none;" d="M76 182L77 183L76 182z" id="svg_763"/><path style="fill:#a5a5a5; stroke:none;" d="M88 182L89 183L88 182M123 182L124 183L123 182z" id="svg_764"/><path style="fill:#515151; stroke:none;" d="M137 182L138 183L137 182z" id="svg_765"/><path style="fill:#a5a5a5; stroke:none;" d="M179 182L180 183L179 182M190 182L191 183L190 182M76 183L77 184L76 183M89 183L90 184L89 183M121 183L122 184L121 183z" id="svg_766"/><path style="fill:#515151; stroke:none;" d="M77 184L78 185L77 184M90 184L91 185L90 184z" id="svg_767"/><path style="fill:#a5a5a5; stroke:none;" d="M91 184L92 185L91 184M119 184L120 185L119 184z" id="svg_768"/><path style="fill:#515151; stroke:none;" d="M178 184L179 185L178 184z" id="svg_769"/><path style="fill:#a5a5a5; stroke:none;" d="M189 184L190 185L189 184z" id="svg_770"/><path style="fill:#727272; stroke:none;" d="M49 185L50 186L49 185M59 185L60 186L59 185z" id="svg_771"/><path style="fill:#515151; stroke:none;" d="M92 185L93 186L92 185z" id="svg_772"/><path style="fill:#a5a5a5; stroke:none;" d="M93 185L94 186L93 185M116 185L117 186L116 185z" id="svg_773"/><path style="fill:#515151; stroke:none;" d="M117 185L118 186L117 185z" id="svg_774"/><path style="fill:#a5a5a5; stroke:none;" d="M135 185L136 186L135 185z" id="svg_775"/><path style="fill:#515151; stroke:none;" d="M177 185L178 186L177 185z" id="svg_776"/><path style="fill:#a5a5a5; stroke:none;" d="M49 186L50 187L49 186M78 186L79 187L78 186z" id="svg_777"/><path style="fill:#727272; stroke:none;" d="M95 186L96 187L95 186z" id="svg_778"/><path style="fill:#a5a5a5; stroke:none;" d="M96 186L97 187L96 186M111.667 186.333L112.333 186.667L111.667 186.333z" id="svg_779"/><path style="fill:#727272; stroke:none;" d="M113 186L114 187L113 186z" id="svg_780"/><path style="fill:#a5a5a5; stroke:none;" d="M134 186L135 187L134 186z" id="svg_781"/><path style="fill:#727272; stroke:none;" d="M176 186L177 187L176 186M188 186L189 187L188 186z" id="svg_782"/><path style="fill:#a5a5a5; stroke:none;" d="M60 187L61 188L60 187M79 187L80 188L79 187z" id="svg_783"/><path style="fill:#515151; stroke:none;" d="M100 187L101 188L100 187z" id="svg_784"/><path style="fill:#727272; stroke:none;" d="M101 187L101 188L107 188L101 187z" id="svg_785"/><path style="fill:#515151; stroke:none;" d="M107 187L108 188L107 187z" id="svg_786"/><path style="fill:#a5a5a5; stroke:none;" d="M133 187L134 188L133 187z" id="svg_787"/><path style="fill:#515151; stroke:none;" d="M175 187L176 188L175 187M50 188L51 189L50 188M60 188L61 189L60 188z" id="svg_788"/><path style="fill:#727272; stroke:none;" d="M80 188L81 189L80 188z" id="svg_789"/><path style="fill:#515151; stroke:none;" d="M131 188L132 189L131 188M174 188L175 189L174 188z" id="svg_790"/><path style="fill:#a5a5a5; stroke:none;" d="M187 188L188 189L187 188M50 189L51 190L50 189M81 189L82 190L81 189z" id="svg_791"/><path style="fill:#727272; stroke:none;" d="M130 189L131 190L130 189z" id="svg_792"/><path style="fill:#a5a5a5; stroke:none;" d="M172 189L173 190L172 189z" id="svg_793"/><path style="fill:#727272; stroke:none;" d="M186 189L187 190L186 189z" id="svg_794"/><path style="fill:#515151; stroke:none;" d="M61 190L62 191L61 190z" id="svg_795"/><path style="fill:#a5a5a5; stroke:none;" d="M82 190L83 191L82 190z" id="svg_796"/><path style="fill:#515151; stroke:none;" d="M128 190L129 191L128 190z" id="svg_797"/><path style="fill:#727272; stroke:none;" d="M171 190L172 191L171 190z" id="svg_798"/><path style="fill:#515151; stroke:none;" d="M185 190L186 191L185 190z" id="svg_799"/><path style="fill:#727272; stroke:none;" d="M51 191L52 192L51 191z" id="svg_800"/><path style="fill:#a5a5a5; stroke:none;" d="M62 191L63 192L62 191M127 191L128 192L127 191z" id="svg_801"/><path style="fill:#515151; stroke:none;" d="M170 191L171 192L170 191z" id="svg_802"/><path style="fill:#a5a5a5; stroke:none;" d="M85 192L86 193L85 192M125 192L126 193L125 192M168 192L169 193L168 192z" id="svg_803"/><path style="fill:#727272; stroke:none;" d="M52 193L53 194L52 193z" id="svg_804"/><path style="fill:#a5a5a5; stroke:none;" d="M63 193L64 194L63 193z" id="svg_805"/><path style="fill:#727272; stroke:none;" d="M87 193L88 194L87 193z" id="svg_806"/><path style="fill:#515151; stroke:none;" d="M122 193L123 194L122 193z" id="svg_807"/><path style="fill:#a5a5a5; stroke:none;" d="M123 193L124 194L123 193M166 193L167 194L166 193z" id="svg_808"/><path style="fill:#727272; stroke:none;" d="M89 194L90 195L89 194z" id="svg_809"/><path style="fill:#515151; stroke:none;" d="M119 194L120 195L119 194z" id="svg_810"/><path style="fill:#a5a5a5; stroke:none;" d="M120 194L121 195L120 194z" id="svg_811"/><path style="fill:#515151; stroke:none;" d="M165 194L166 195L165 194z" id="svg_812"/><path style="fill:#727272; stroke:none;" d="M53 195L54 196L53 195z" id="svg_813"/><path style="fill:#a5a5a5; stroke:none;" d="M91 195L92 196L91 195z" id="svg_814"/><path style="fill:#727272; stroke:none;" d="M92 195L93 196L92 195M116 195L117 196L116 195z" id="svg_815"/><path style="fill:#a5a5a5; stroke:none;" d="M117 195L118 196L117 195z" id="svg_816"/><path style="fill:#727272; stroke:none;" d="M163 195L164 196L163 195z" id="svg_817"/><path style="fill:#515151; stroke:none;" d="M180 195L181 196L180 195M65 196L66 197L65 196z" id="svg_818"/><path style="fill:#a5a5a5; stroke:none;" d="M95.6667 196.333L96.3333 196.667L95.6667 196.333z" id="svg_819"/><path style="fill:#727272; stroke:none;" d="M97 196L98 197L97 196z" id="svg_820"/><path style="fill:#515151; stroke:none;" d="M98 196L99 197L98 196M109.667 196.333L110.333 196.667L109.667 196.333z" id="svg_821"/><path style="fill:#727272; stroke:none;" d="M111 196L112 197L111 196z" id="svg_822"/><path style="fill:#a5a5a5; stroke:none;" d="M112 196L113 197L112 196z" id="svg_823"/><path style="fill:#727272; stroke:none;" d="M161 196L162 197L161 196M179 196L180 197L179 196z" id="svg_824"/><path style="fill:#a5a5a5; stroke:none;" d="M54 197L55 198L54 197M66 197L67 198L66 197z" id="svg_825"/><path style="fill:#727272; stroke:none;" d="M159 197L160 198L159 197z" id="svg_826"/><path style="fill:#a5a5a5; stroke:none;" d="M178 197L179 198L178 197z" id="svg_827"/><path style="fill:#515151; stroke:none;" d="M55 198L56 199L55 198z" id="svg_828"/><path style="fill:#a5a5a5; stroke:none;" d="M67 198L68 199L67 198z" id="svg_829"/><path style="fill:#515151; stroke:none;" d="M157 198L158 199L157 198M176 198L177 199L176 198z" id="svg_830"/><path style="fill:#a5a5a5; stroke:none;" d="M68 199L69 200L68 199M154 199L155 200L154 199z" id="svg_831"/><path style="fill:#515151; stroke:none;" d="M155 199L156 200L155 199z" id="svg_832"/><path style="fill:#727272; stroke:none;" d="M175 199L176 200L175 199z" id="svg_833"/><path style="fill:#a5a5a5; stroke:none;" d="M56 200L57 201L56 200M69 200L70 201L69 200M152 200L153 201L152 200z" id="svg_834"/><path style="fill:#515151; stroke:none;" d="M173 200L174 201L173 200M57 201L58 202L57 201z" id="svg_835"/><path style="fill:#a5a5a5; stroke:none;" d="M70 201L71 202L70 201M149 201L150 202L149 201z" id="svg_836"/><path style="fill:#727272; stroke:none;" d="M150 201L151 202L150 201z" id="svg_837"/><path style="fill:#a5a5a5; stroke:none;" d="M172 201L173 202L172 201z" id="svg_838"/><path style="fill:#727272; stroke:none;" d="M71 202L72 203L71 202z" id="svg_839"/><path style="fill:#a5a5a5; stroke:none;" d="M147 202L148 203L147 202z" id="svg_840"/><path style="fill:#727272; stroke:none;" d="M170 202L171 203L170 202z" id="svg_841"/><path style="fill:#515151; stroke:none;" d="M72 203L73 204L72 203z" id="svg_842"/><path style="fill:#a5a5a5; stroke:none;" d="M144 203L145 204L144 203z" id="svg_843"/><path style="fill:#515151; stroke:none;" d="M145 203L146 204L145 203M168 203L169 204L168 203z" id="svg_844"/><path style="fill:#a5a5a5; stroke:none;" d="M59 204L60 205L59 204M74 204L75 205L74 204M141 204L142 205L141 204z" id="svg_845"/><path style="fill:#515151; stroke:none;" d="M142 204L143 205L142 204M166 204L167 205L166 204z" id="svg_846"/><path style="fill:#a5a5a5; stroke:none;" d="M60 205L61 206L60 205z" id="svg_847"/><path style="fill:#515151; stroke:none;" d="M75 205L76 206L75 205z" id="svg_848"/><path style="fill:#a5a5a5; stroke:none;" d="M138 205L139 206L138 205z" id="svg_849"/><path style="fill:#515151; stroke:none;" d="M139 205L140 206L139 205M164 205L165 206L164 205z" id="svg_850"/><path style="fill:#a5a5a5; stroke:none;" d="M165 205L166 206L165 205M61 206L62 207L61 206z" id="svg_851"/><path style="fill:#727272; stroke:none;" d="M77 206L78 207L77 206z" id="svg_852"/><path style="fill:#a5a5a5; stroke:none;" d="M134 206L135 207L134 206z" id="svg_853"/><path style="fill:#727272; stroke:none;" d="M135 206L136 207L135 206z" id="svg_854"/><path style="fill:#515151; stroke:none;" d="M162 206L163 207L162 206z" id="svg_855"/><path style="fill:#a5a5a5; stroke:none;" d="M163 206L164 207L163 206M62 207L63 208L62 207z" id="svg_856"/><path style="fill:#727272; stroke:none;" d="M79 207L80 208L79 207z" id="svg_857"/><path style="fill:#a5a5a5; stroke:none;" d="M131 207L132 208L131 207z" id="svg_858"/><path style="fill:#515151; stroke:none;" d="M132 207L133 208L132 207z" id="svg_859"/><path style="fill:#727272; stroke:none;" d="M160 207L161 208L160 207z" id="svg_860"/><path style="fill:#a5a5a5; stroke:none;" d="M63 208L64 209L63 208z" id="svg_861"/><path style="fill:#515151; stroke:none;" d="M81 208L82 209L81 208z" id="svg_862"/><path style="fill:#a5a5a5; stroke:none;" d="M82 208L83 209L82 208M127 208L128 209L127 208z" id="svg_863"/><path style="fill:#727272; stroke:none;" d="M128 208L129 209L128 208z" id="svg_864"/><path style="fill:#a5a5a5; stroke:none;" d="M158 208L159 209L158 208z" id="svg_865"/><path style="fill:#727272; stroke:none;" d="M84 209L85 210L84 209z" id="svg_866"/><path style="fill:#a5a5a5; stroke:none;" d="M85 209L86 210L85 209M122.667 209.333L123.333 209.667L122.667 209.333z" id="svg_867"/><path style="fill:#515151; stroke:none;" d="M124 209L125 210L124 209M155 209L156 210L155 209z" id="svg_868"/><path style="fill:#a5a5a5; stroke:none;" d="M156 209L157 210L156 209z" id="svg_869"/><path style="fill:#515151; stroke:none;" d="M66 210L67 211L66 210M87 210L88 211L87 210z" id="svg_870"/><path style="fill:#a5a5a5; stroke:none;" d="M88 210L89 211L88 210M117.667 210.333L118.333 210.667L117.667 210.333z" id="svg_871"/><path style="fill:#727272; stroke:none;" d="M119 210L120 211L119 210z" id="svg_872"/><path style="fill:#a5a5a5; stroke:none;" d="M153 210L154 211L153 210M67 211L68 212L67 211z" id="svg_873"/><path style="fill:#515151; stroke:none;" d="M91 211L92 212L91 211z" id="svg_874"/><path style="fill:#727272; stroke:none;" d="M92 211L93 212L92 211z" id="svg_875"/><path style="fill:#a5a5a5; stroke:none;" d="M93.6667 211.333L94.3333 211.667L93.6667 211.333M110 211L110 212L113 212L110 211z" id="svg_876"/><path style="fill:#727272; stroke:none;" d="M113 211L114 212L113 211z" id="svg_877"/><path style="fill:#515151; stroke:none;" d="M114 211L115 212L114 211z" id="svg_878"/><path style="fill:#727272; stroke:none;" d="M150 211L151 212L150 211z" id="svg_879"/><path style="fill:#a5a5a5; stroke:none;" d="M151 211L152 212L151 211z" id="svg_880"/><path style="fill:#515151; stroke:none;" d="M147 212L148 213L147 212z" id="svg_881"/><path style="fill:#a5a5a5; stroke:none;" d="M148 212L149 213L148 212M70 213L71 214L70 213z" id="svg_882"/><path style="fill:#515151; stroke:none;" d="M144 213L145 214L144 213z" id="svg_883"/><path style="fill:#a5a5a5; stroke:none;" d="M145 213L146 214L145 213z" id="svg_884"/><path style="fill:#515151; stroke:none;" d="M72 214L73 215L72 214M141 214L142 215L141 214z" id="svg_885"/><path style="fill:#a5a5a5; stroke:none;" d="M142 214L143 215L142 214z" id="svg_886"/><path style="fill:#515151; stroke:none;" d="M74 215L75 216L74 215z" id="svg_887"/><path style="fill:#727272; stroke:none;" d="M138 215L139 216L138 215z" id="svg_888"/><path style="fill:#a5a5a5; stroke:none;" d="M139 215L140 216L139 215z" id="svg_889"/><path style="fill:#727272; stroke:none;" d="M76 216L77 217L76 216z" id="svg_890"/><path style="fill:#515151; stroke:none;" d="M134 216L135 217L134 216z" id="svg_891"/><path style="fill:#a5a5a5; stroke:none;" d="M135 216L136 217L135 216M78 217L79 218L78 217z" id="svg_892"/><path style="fill:#727272; stroke:none;" d="M131 217L132 218L131 217z" id="svg_893"/><path style="fill:#a5a5a5; stroke:none;" d="M132 217L133 218L132 217z" id="svg_894"/><path style="fill:#727272; stroke:none;" d="M81 218L82 219L81 218z" id="svg_895"/><path style="fill:#515151; stroke:none;" d="M126 218L127 219L126 218z" id="svg_896"/><path style="fill:#a5a5a5; stroke:none;" d="M127.667 218.333L128.333 218.667L127.667 218.333M84 219L85 220L84 219z" id="svg_897"/><path style="fill:#515151; stroke:none;" d="M85 219L86 220L85 219z" id="svg_898"/><path style="fill:#727272; stroke:none;" d="M122 219L123 220L122 219z" id="svg_899"/><path style="fill:#a5a5a5; stroke:none;" d="M123 219L124 220L123 219M88 220L89 221L88 220z" id="svg_900"/><path style="fill:#727272; stroke:none;" d="M89 220L90 221L89 220z" id="svg_901"/><path style="fill:#515151; stroke:none;" d="M90 220L91 221L90 220M116 220L117 221L116 220z" id="svg_902"/><path style="fill:#727272; stroke:none;" d="M117 220L118 221L117 220z" id="svg_903"/><path style="fill:#a5a5a5; stroke:none;" d="M118 220L119 221L118 220M93 221L93 222L96 222L93 221z" id="svg_904"/><path style="fill:#727272; stroke:none;" d="M96.6667 221.333L97.3333 221.667L96.6667 221.333z" id="svg_905"/><path style="fill:#515151; stroke:none;" d="M98 221L98 222L101 222L98 221M106 221L106 222L109 222L106 221z" id="svg_906"/><path style="fill:#727272; stroke:none;" d="M109.667 221.333L110.333 221.667L109.667 221.333z" id="svg_907"/><path style="fill:#a5a5a5; stroke:none;" d="M111.667 221.333L112.333 221.667L111.667 221.333z" id="svg_908"/></g></svg>